<mxfile host="app.diagrams.net" modified="2023-07-02T07:48:58.544Z" agent="Mozilla/5.0 (Windows NT 10.0; Win64; x64) AppleWebKit/537.36 (KHTML, like Gecko) Chrome/114.0.0.0 Safari/537.36 OPR/100.0.0.0" etag="0BgCb7aFx7v2_nK-YZMb" version="21.5.2" type="github">
  <diagram name="Page-1" id="Gzs8lpX1u0B0sLz5hb0p">
    <mxGraphModel dx="1843" dy="925" grid="1" gridSize="10" guides="1" tooltips="1" connect="1" arrows="1" fold="1" page="1" pageScale="1" pageWidth="850" pageHeight="1100" math="0" shadow="0">
      <root>
        <mxCell id="0" />
        <mxCell id="1" parent="0" />
        <mxCell id="rQRDz4Iqr7Op0qweMpyO-566" value="Admin" style="swimlane;whiteSpace=wrap" parent="1" vertex="1">
          <mxGeometry x="1200" y="120" width="240" height="1180" as="geometry" />
        </mxCell>
        <mxCell id="rQRDz4Iqr7Op0qweMpyO-567" value="" style="ellipse;shape=startState;fillColor=#000000;strokeColor=#000000;" parent="rQRDz4Iqr7Op0qweMpyO-566" vertex="1">
          <mxGeometry x="105" y="40" width="30" height="30" as="geometry" />
        </mxCell>
        <mxCell id="rQRDz4Iqr7Op0qweMpyO-568" value="" style="edgeStyle=elbowEdgeStyle;elbow=horizontal;verticalAlign=bottom;endArrow=open;endSize=8;strokeColor=#000000;endFill=1;rounded=0;entryX=0.5;entryY=0;entryDx=0;entryDy=0;entryPerimeter=0;" parent="rQRDz4Iqr7Op0qweMpyO-566" edge="1">
          <mxGeometry x="100" y="40" as="geometry">
            <mxPoint x="115" y="100" as="targetPoint" />
            <mxPoint x="114.71428571428578" y="100" as="sourcePoint" />
          </mxGeometry>
        </mxCell>
        <mxCell id="rQRDz4Iqr7Op0qweMpyO-569" value="" style="edgeStyle=elbowEdgeStyle;elbow=horizontal;verticalAlign=bottom;endArrow=open;endSize=8;strokeColor=#000000;endFill=1;rounded=0;entryX=0.5;entryY=0;entryDx=0;entryDy=0;entryPerimeter=0;" parent="rQRDz4Iqr7Op0qweMpyO-566" source="rQRDz4Iqr7Op0qweMpyO-567" edge="1">
          <mxGeometry x="100" y="40" as="geometry">
            <mxPoint x="120" y="100" as="targetPoint" />
            <mxPoint x="155" y="190" as="sourcePoint" />
          </mxGeometry>
        </mxCell>
        <mxCell id="rQRDz4Iqr7Op0qweMpyO-570" value="Login" style="rounded=1;whiteSpace=wrap;html=1;arcSize=40;fontColor=#000000;fillColor=#FFFFFF;strokeColor=#000000;" parent="rQRDz4Iqr7Op0qweMpyO-566" vertex="1">
          <mxGeometry x="80" y="100" width="80" height="40" as="geometry" />
        </mxCell>
        <mxCell id="rQRDz4Iqr7Op0qweMpyO-571" value="Pilih Menu Artikel" style="rounded=1;whiteSpace=wrap;html=1;arcSize=40;fontColor=#000000;fillColor=#FFFFFF;strokeColor=#000000;" parent="rQRDz4Iqr7Op0qweMpyO-566" vertex="1">
          <mxGeometry x="80" y="240" width="80" height="40" as="geometry" />
        </mxCell>
        <mxCell id="rQRDz4Iqr7Op0qweMpyO-572" value="" style="edgeStyle=orthogonalEdgeStyle;rounded=0;orthogonalLoop=1;jettySize=auto;html=1;" parent="rQRDz4Iqr7Op0qweMpyO-566" source="rQRDz4Iqr7Op0qweMpyO-573" target="rQRDz4Iqr7Op0qweMpyO-574" edge="1">
          <mxGeometry relative="1" as="geometry" />
        </mxCell>
        <mxCell id="rQRDz4Iqr7Op0qweMpyO-573" value="Input Data Artikel" style="rounded=1;whiteSpace=wrap;html=1;arcSize=40;fontColor=#000000;fillColor=#FFFFFF;strokeColor=#000000;" parent="rQRDz4Iqr7Op0qweMpyO-566" vertex="1">
          <mxGeometry x="80" y="365.03999999999996" width="80" height="40" as="geometry" />
        </mxCell>
        <mxCell id="rQRDz4Iqr7Op0qweMpyO-574" value="Submit" style="rounded=1;whiteSpace=wrap;html=1;arcSize=40;fontColor=#000000;fillColor=#FFFFFF;strokeColor=#000000;" parent="rQRDz4Iqr7Op0qweMpyO-566" vertex="1">
          <mxGeometry x="80" y="435.03999999999996" width="80" height="40" as="geometry" />
        </mxCell>
        <mxCell id="rQRDz4Iqr7Op0qweMpyO-575" value="" style="edgeStyle=orthogonalEdgeStyle;rounded=0;orthogonalLoop=1;jettySize=auto;html=1;" parent="rQRDz4Iqr7Op0qweMpyO-566" source="rQRDz4Iqr7Op0qweMpyO-576" target="rQRDz4Iqr7Op0qweMpyO-582" edge="1">
          <mxGeometry relative="1" as="geometry" />
        </mxCell>
        <mxCell id="rQRDz4Iqr7Op0qweMpyO-576" value="Lihat Data Artikel" style="rounded=1;whiteSpace=wrap;html=1;arcSize=40;fontColor=#000000;fillColor=#FFFFFF;strokeColor=#000000;" parent="rQRDz4Iqr7Op0qweMpyO-566" vertex="1">
          <mxGeometry x="80" y="515.04" width="80" height="40" as="geometry" />
        </mxCell>
        <mxCell id="rQRDz4Iqr7Op0qweMpyO-577" value="" style="edgeStyle=orthogonalEdgeStyle;rounded=0;orthogonalLoop=1;jettySize=auto;html=1;" parent="rQRDz4Iqr7Op0qweMpyO-566" source="rQRDz4Iqr7Op0qweMpyO-578" target="rQRDz4Iqr7Op0qweMpyO-579" edge="1">
          <mxGeometry relative="1" as="geometry" />
        </mxCell>
        <mxCell id="rQRDz4Iqr7Op0qweMpyO-578" value="Edit Data Artikel" style="rounded=1;whiteSpace=wrap;html=1;arcSize=40;fontColor=#000000;fillColor=#FFFFFF;strokeColor=#000000;" parent="rQRDz4Iqr7Op0qweMpyO-566" vertex="1">
          <mxGeometry x="80" y="630" width="80" height="40" as="geometry" />
        </mxCell>
        <mxCell id="rQRDz4Iqr7Op0qweMpyO-579" value="Submit" style="rounded=1;whiteSpace=wrap;html=1;arcSize=40;fontColor=#000000;fillColor=#FFFFFF;strokeColor=#000000;" parent="rQRDz4Iqr7Op0qweMpyO-566" vertex="1">
          <mxGeometry x="80" y="693.04" width="80" height="40" as="geometry" />
        </mxCell>
        <mxCell id="rQRDz4Iqr7Op0qweMpyO-580" value="Lihat Data Artikel" style="rounded=1;whiteSpace=wrap;html=1;arcSize=40;fontColor=#000000;fillColor=#FFFFFF;strokeColor=#000000;" parent="rQRDz4Iqr7Op0qweMpyO-566" vertex="1">
          <mxGeometry x="80" y="773.04" width="80" height="40" as="geometry" />
        </mxCell>
        <mxCell id="rQRDz4Iqr7Op0qweMpyO-581" value="" style="group" parent="rQRDz4Iqr7Op0qweMpyO-566" vertex="1" connectable="0">
          <mxGeometry x="105" y="570" width="30" height="30" as="geometry" />
        </mxCell>
        <mxCell id="rQRDz4Iqr7Op0qweMpyO-582" value="" style="ellipse;whiteSpace=wrap;html=1;aspect=fixed;" parent="rQRDz4Iqr7Op0qweMpyO-581" vertex="1">
          <mxGeometry width="30" height="30" as="geometry" />
        </mxCell>
        <mxCell id="rQRDz4Iqr7Op0qweMpyO-583" value="" style="endArrow=none;html=1;rounded=0;exitX=0;exitY=1;exitDx=0;exitDy=0;entryX=1;entryY=0;entryDx=0;entryDy=0;" parent="rQRDz4Iqr7Op0qweMpyO-581" source="rQRDz4Iqr7Op0qweMpyO-582" target="rQRDz4Iqr7Op0qweMpyO-582" edge="1">
          <mxGeometry width="50" height="50" relative="1" as="geometry">
            <mxPoint x="20" y="60" as="sourcePoint" />
            <mxPoint x="70" y="10" as="targetPoint" />
          </mxGeometry>
        </mxCell>
        <mxCell id="rQRDz4Iqr7Op0qweMpyO-584" value="" style="endArrow=none;html=1;rounded=0;exitX=0;exitY=0;exitDx=0;exitDy=0;entryX=1;entryY=1;entryDx=0;entryDy=0;" parent="rQRDz4Iqr7Op0qweMpyO-581" source="rQRDz4Iqr7Op0qweMpyO-582" target="rQRDz4Iqr7Op0qweMpyO-582" edge="1">
          <mxGeometry width="50" height="50" relative="1" as="geometry">
            <mxPoint x="22" y="78" as="sourcePoint" />
            <mxPoint x="78" y="22" as="targetPoint" />
          </mxGeometry>
        </mxCell>
        <mxCell id="rQRDz4Iqr7Op0qweMpyO-585" value="Lihat Data Artikel" style="rounded=1;whiteSpace=wrap;html=1;arcSize=40;fontColor=#000000;fillColor=#FFFFFF;strokeColor=#000000;" parent="rQRDz4Iqr7Op0qweMpyO-566" vertex="1">
          <mxGeometry x="80" y="1090" width="80" height="40" as="geometry" />
        </mxCell>
        <mxCell id="rQRDz4Iqr7Op0qweMpyO-631" value="Pilih Data Artikel" style="rounded=1;whiteSpace=wrap;html=1;arcSize=40;fontColor=#000000;fillColor=#FFFFFF;strokeColor=#000000;" parent="rQRDz4Iqr7Op0qweMpyO-566" vertex="1">
          <mxGeometry x="80" y="900" width="80" height="40" as="geometry" />
        </mxCell>
        <mxCell id="rQRDz4Iqr7Op0qweMpyO-634" value="Hapus Data Artikel" style="rounded=1;whiteSpace=wrap;html=1;arcSize=40;fontColor=#000000;fillColor=#FFFFFF;strokeColor=#000000;" parent="rQRDz4Iqr7Op0qweMpyO-566" vertex="1">
          <mxGeometry x="80" y="960" width="80" height="40" as="geometry" />
        </mxCell>
        <mxCell id="rQRDz4Iqr7Op0qweMpyO-630" value="" style="edgeStyle=orthogonalEdgeStyle;rounded=0;orthogonalLoop=1;jettySize=auto;html=1;" parent="rQRDz4Iqr7Op0qweMpyO-566" source="rQRDz4Iqr7Op0qweMpyO-631" target="rQRDz4Iqr7Op0qweMpyO-634" edge="1">
          <mxGeometry relative="1" as="geometry" />
        </mxCell>
        <mxCell id="rQRDz4Iqr7Op0qweMpyO-586" value="Sistem" style="swimlane;whiteSpace=wrap;startSize=23;" parent="1" vertex="1">
          <mxGeometry x="1440" y="120" width="240" height="1180" as="geometry" />
        </mxCell>
        <mxCell id="rQRDz4Iqr7Op0qweMpyO-587" value="Ya" style="edgeStyle=orthogonalEdgeStyle;rounded=0;orthogonalLoop=1;jettySize=auto;html=1;entryX=0.5;entryY=0;entryDx=0;entryDy=0;exitX=0.5;exitY=1;exitDx=0;exitDy=0;" parent="rQRDz4Iqr7Op0qweMpyO-586" source="rQRDz4Iqr7Op0qweMpyO-591" edge="1">
          <mxGeometry x="-0.3333" relative="1" as="geometry">
            <mxPoint x="135" y="180" as="targetPoint" />
            <mxPoint as="offset" />
            <mxPoint x="129.9999999999999" y="155" as="sourcePoint" />
          </mxGeometry>
        </mxCell>
        <mxCell id="rQRDz4Iqr7Op0qweMpyO-588" value="Tidak" style="edgeStyle=orthogonalEdgeStyle;rounded=0;orthogonalLoop=1;jettySize=auto;html=1;entryX=0.5;entryY=0;entryDx=0;entryDy=0;entryPerimeter=0;exitX=0.5;exitY=1;exitDx=0;exitDy=0;exitPerimeter=0;" parent="rQRDz4Iqr7Op0qweMpyO-586" source="rQRDz4Iqr7Op0qweMpyO-589" target="rQRDz4Iqr7Op0qweMpyO-595" edge="1">
          <mxGeometry x="-0.0182" relative="1" as="geometry">
            <mxPoint x="135" y="525.04" as="targetPoint" />
            <mxPoint as="offset" />
            <mxPoint x="135" y="427.5400000000001" as="sourcePoint" />
          </mxGeometry>
        </mxCell>
        <mxCell id="rQRDz4Iqr7Op0qweMpyO-589" value="Tambah &lt;br&gt;Artikel" style="strokeWidth=2;html=1;shape=mxgraph.flowchart.decision;whiteSpace=wrap;" parent="rQRDz4Iqr7Op0qweMpyO-586" vertex="1">
          <mxGeometry x="95" y="302.5" width="80" height="80" as="geometry" />
        </mxCell>
        <mxCell id="rQRDz4Iqr7Op0qweMpyO-591" value="Verifikasi" style="rhombus;whiteSpace=wrap;html=1;" parent="rQRDz4Iqr7Op0qweMpyO-586" vertex="1">
          <mxGeometry x="95" y="80" width="80" height="80" as="geometry" />
        </mxCell>
        <mxCell id="rQRDz4Iqr7Op0qweMpyO-592" value="" style="edgeStyle=orthogonalEdgeStyle;rounded=0;orthogonalLoop=1;jettySize=auto;html=1;" parent="rQRDz4Iqr7Op0qweMpyO-586" source="rQRDz4Iqr7Op0qweMpyO-594" target="rQRDz4Iqr7Op0qweMpyO-598" edge="1">
          <mxGeometry relative="1" as="geometry" />
        </mxCell>
        <mxCell id="rQRDz4Iqr7Op0qweMpyO-593" value="Ya" style="edgeLabel;html=1;align=center;verticalAlign=middle;resizable=0;points=[];" parent="rQRDz4Iqr7Op0qweMpyO-592" vertex="1" connectable="0">
          <mxGeometry x="0.591" relative="1" as="geometry">
            <mxPoint y="-9" as="offset" />
          </mxGeometry>
        </mxCell>
        <mxCell id="rQRDz4Iqr7Op0qweMpyO-594" value="Validasi" style="rhombus;whiteSpace=wrap;html=1;" parent="rQRDz4Iqr7Op0qweMpyO-586" vertex="1">
          <mxGeometry x="20" y="407.53999999999996" width="80" height="80" as="geometry" />
        </mxCell>
        <mxCell id="rQRDz4Iqr7Op0qweMpyO-595" value="Edit Artikel" style="strokeWidth=2;html=1;shape=mxgraph.flowchart.decision;whiteSpace=wrap;" parent="rQRDz4Iqr7Op0qweMpyO-586" vertex="1">
          <mxGeometry x="95" y="570" width="80" height="80" as="geometry" />
        </mxCell>
        <mxCell id="rQRDz4Iqr7Op0qweMpyO-596" value="Tampil Dashboard" style="rounded=1;whiteSpace=wrap;html=1;arcSize=40;fontColor=#000000;fillColor=#FFFFFF;strokeColor=#000000;" parent="rQRDz4Iqr7Op0qweMpyO-586" vertex="1">
          <mxGeometry x="95" y="180" width="80" height="40" as="geometry" />
        </mxCell>
        <mxCell id="rQRDz4Iqr7Op0qweMpyO-722" value="" style="edgeStyle=orthogonalEdgeStyle;rounded=0;orthogonalLoop=1;jettySize=auto;html=1;" parent="rQRDz4Iqr7Op0qweMpyO-586" source="rQRDz4Iqr7Op0qweMpyO-597" target="rQRDz4Iqr7Op0qweMpyO-589" edge="1">
          <mxGeometry relative="1" as="geometry" />
        </mxCell>
        <mxCell id="rQRDz4Iqr7Op0qweMpyO-597" value="Tampil Data Artikel" style="rounded=1;whiteSpace=wrap;html=1;arcSize=40;fontColor=#000000;fillColor=#FFFFFF;strokeColor=#000000;" parent="rQRDz4Iqr7Op0qweMpyO-586" vertex="1">
          <mxGeometry x="95" y="240" width="80" height="40" as="geometry" />
        </mxCell>
        <mxCell id="rQRDz4Iqr7Op0qweMpyO-598" value="Tampil Sukses Alert" style="rounded=1;whiteSpace=wrap;html=1;arcSize=40;fontColor=#000000;fillColor=#FFFFFF;strokeColor=#000000;" parent="rQRDz4Iqr7Op0qweMpyO-586" vertex="1">
          <mxGeometry x="20" y="515.04" width="80" height="40" as="geometry" />
        </mxCell>
        <mxCell id="rQRDz4Iqr7Op0qweMpyO-599" value="" style="edgeStyle=orthogonalEdgeStyle;rounded=0;orthogonalLoop=1;jettySize=auto;html=1;" parent="rQRDz4Iqr7Op0qweMpyO-586" source="rQRDz4Iqr7Op0qweMpyO-601" target="rQRDz4Iqr7Op0qweMpyO-602" edge="1">
          <mxGeometry relative="1" as="geometry" />
        </mxCell>
        <mxCell id="rQRDz4Iqr7Op0qweMpyO-600" value="Ya" style="edgeLabel;html=1;align=center;verticalAlign=middle;resizable=0;points=[];" parent="rQRDz4Iqr7Op0qweMpyO-599" vertex="1" connectable="0">
          <mxGeometry x="0.591" relative="1" as="geometry">
            <mxPoint y="-9" as="offset" />
          </mxGeometry>
        </mxCell>
        <mxCell id="rQRDz4Iqr7Op0qweMpyO-601" value="Validasi" style="rhombus;whiteSpace=wrap;html=1;" parent="rQRDz4Iqr7Op0qweMpyO-586" vertex="1">
          <mxGeometry x="20" y="665.54" width="80" height="80" as="geometry" />
        </mxCell>
        <mxCell id="rQRDz4Iqr7Op0qweMpyO-602" value="Tampil Sukses Alert" style="rounded=1;whiteSpace=wrap;html=1;arcSize=40;fontColor=#000000;fillColor=#FFFFFF;strokeColor=#000000;" parent="rQRDz4Iqr7Op0qweMpyO-586" vertex="1">
          <mxGeometry x="20" y="773.04" width="80" height="40" as="geometry" />
        </mxCell>
        <mxCell id="rQRDz4Iqr7Op0qweMpyO-629" value="Delete&amp;nbsp;&lt;br&gt;Artikel" style="strokeWidth=2;html=1;shape=mxgraph.flowchart.decision;whiteSpace=wrap;" parent="rQRDz4Iqr7Op0qweMpyO-586" vertex="1">
          <mxGeometry x="95" y="840" width="80" height="80" as="geometry" />
        </mxCell>
        <mxCell id="rQRDz4Iqr7Op0qweMpyO-632" value="" style="edgeStyle=orthogonalEdgeStyle;rounded=0;orthogonalLoop=1;jettySize=auto;html=1;entryX=0.5;entryY=0;entryDx=0;entryDy=0;entryPerimeter=0;" parent="rQRDz4Iqr7Op0qweMpyO-586" source="rQRDz4Iqr7Op0qweMpyO-595" target="rQRDz4Iqr7Op0qweMpyO-629" edge="1">
          <mxGeometry relative="1" as="geometry" />
        </mxCell>
        <mxCell id="rQRDz4Iqr7Op0qweMpyO-633" value="Tidak" style="edgeLabel;html=1;align=center;verticalAlign=middle;resizable=0;points=[];" parent="rQRDz4Iqr7Op0qweMpyO-632" vertex="1" connectable="0">
          <mxGeometry x="-0.2012" y="-1" relative="1" as="geometry">
            <mxPoint x="1" y="28" as="offset" />
          </mxGeometry>
        </mxCell>
        <mxCell id="rQRDz4Iqr7Op0qweMpyO-640" value="Verifikasi" style="rhombus;whiteSpace=wrap;html=1;" parent="rQRDz4Iqr7Op0qweMpyO-586" vertex="1">
          <mxGeometry x="20" y="940" width="80" height="80" as="geometry" />
        </mxCell>
        <mxCell id="rQRDz4Iqr7Op0qweMpyO-637" value="Tampil Sukses Alert" style="rounded=1;whiteSpace=wrap;html=1;arcSize=40;fontColor=#000000;fillColor=#FFFFFF;strokeColor=#000000;" parent="rQRDz4Iqr7Op0qweMpyO-586" vertex="1">
          <mxGeometry x="20" y="1050" width="80" height="40" as="geometry" />
        </mxCell>
        <mxCell id="rQRDz4Iqr7Op0qweMpyO-635" value="" style="edgeStyle=orthogonalEdgeStyle;rounded=0;orthogonalLoop=1;jettySize=auto;html=1;" parent="rQRDz4Iqr7Op0qweMpyO-586" source="rQRDz4Iqr7Op0qweMpyO-640" target="rQRDz4Iqr7Op0qweMpyO-637" edge="1">
          <mxGeometry relative="1" as="geometry" />
        </mxCell>
        <mxCell id="rQRDz4Iqr7Op0qweMpyO-636" value="Ya" style="edgeLabel;html=1;align=center;verticalAlign=middle;resizable=0;points=[];" parent="rQRDz4Iqr7Op0qweMpyO-635" vertex="1" connectable="0">
          <mxGeometry x="0.591" relative="1" as="geometry">
            <mxPoint y="-9" as="offset" />
          </mxGeometry>
        </mxCell>
        <mxCell id="rQRDz4Iqr7Op0qweMpyO-603" style="edgeStyle=orthogonalEdgeStyle;rounded=0;orthogonalLoop=1;jettySize=auto;html=1;entryX=0;entryY=0.5;entryDx=0;entryDy=0;exitX=1;exitY=0.5;exitDx=0;exitDy=0;" parent="1" target="rQRDz4Iqr7Op0qweMpyO-591" edge="1">
          <mxGeometry relative="1" as="geometry">
            <mxPoint x="1360" y="240" as="sourcePoint" />
            <mxPoint x="1520" y="230" as="targetPoint" />
          </mxGeometry>
        </mxCell>
        <mxCell id="rQRDz4Iqr7Op0qweMpyO-604" style="edgeStyle=orthogonalEdgeStyle;rounded=0;orthogonalLoop=1;jettySize=auto;html=1;entryX=0.5;entryY=0;entryDx=0;entryDy=0;exitX=0;exitY=0.5;exitDx=0;exitDy=0;" parent="1" edge="1">
          <mxGeometry relative="1" as="geometry">
            <mxPoint x="1535" y="320" as="sourcePoint" />
            <mxPoint x="1320" y="360" as="targetPoint" />
            <Array as="points">
              <mxPoint x="1520" y="320" />
              <mxPoint x="1320" y="320" />
            </Array>
          </mxGeometry>
        </mxCell>
        <mxCell id="rQRDz4Iqr7Op0qweMpyO-605" value="Article Management" style="text;html=1;align=center;verticalAlign=middle;resizable=0;points=[];autosize=1;strokeColor=none;fillColor=none;" parent="1" vertex="1">
          <mxGeometry x="1375" y="80" width="130" height="30" as="geometry" />
        </mxCell>
        <mxCell id="rQRDz4Iqr7Op0qweMpyO-606" style="edgeStyle=orthogonalEdgeStyle;rounded=0;orthogonalLoop=1;jettySize=auto;html=1;entryX=0;entryY=0.5;entryDx=0;entryDy=0;" parent="1" edge="1">
          <mxGeometry relative="1" as="geometry">
            <mxPoint x="1360" y="380.0000000000001" as="sourcePoint" />
            <mxPoint x="1535" y="380" as="targetPoint" />
          </mxGeometry>
        </mxCell>
        <mxCell id="rQRDz4Iqr7Op0qweMpyO-607" value="" style="ellipse;shape=endState;fillColor=#000000;strokeColor=#000000;" parent="1" vertex="1">
          <mxGeometry x="1305" y="1265.04" width="30" height="30" as="geometry" />
        </mxCell>
        <mxCell id="rQRDz4Iqr7Op0qweMpyO-608" value="" style="endArrow=classic;html=1;rounded=0;entryX=1;entryY=0.5;entryDx=0;entryDy=0;exitX=1;exitY=0.5;exitDx=0;exitDy=0;" parent="1" source="rQRDz4Iqr7Op0qweMpyO-591" target="rQRDz4Iqr7Op0qweMpyO-567" edge="1">
          <mxGeometry relative="1" as="geometry">
            <mxPoint x="1620" y="240" as="sourcePoint" />
            <mxPoint x="1750" y="322" as="targetPoint" />
            <Array as="points">
              <mxPoint x="1650" y="240" />
              <mxPoint x="1650" y="175" />
            </Array>
          </mxGeometry>
        </mxCell>
        <mxCell id="rQRDz4Iqr7Op0qweMpyO-609" value="Tidak" style="edgeLabel;resizable=0;html=1;align=center;verticalAlign=middle;" parent="rQRDz4Iqr7Op0qweMpyO-608" connectable="0" vertex="1">
          <mxGeometry relative="1" as="geometry">
            <mxPoint x="90" y="65" as="offset" />
          </mxGeometry>
        </mxCell>
        <mxCell id="rQRDz4Iqr7Op0qweMpyO-610" style="edgeStyle=orthogonalEdgeStyle;rounded=0;orthogonalLoop=1;jettySize=auto;html=1;entryX=0.5;entryY=0;entryDx=0;entryDy=0;" parent="1" source="rQRDz4Iqr7Op0qweMpyO-589" target="rQRDz4Iqr7Op0qweMpyO-573" edge="1">
          <mxGeometry relative="1" as="geometry">
            <mxPoint x="1360" y="462.5" as="targetPoint" />
          </mxGeometry>
        </mxCell>
        <mxCell id="rQRDz4Iqr7Op0qweMpyO-611" value="Ya" style="edgeLabel;html=1;align=center;verticalAlign=middle;resizable=0;points=[];" parent="rQRDz4Iqr7Op0qweMpyO-610" vertex="1" connectable="0">
          <mxGeometry x="-0.9086" y="-1" relative="1" as="geometry">
            <mxPoint x="-7" y="1" as="offset" />
          </mxGeometry>
        </mxCell>
        <mxCell id="rQRDz4Iqr7Op0qweMpyO-612" value="" style="edgeStyle=orthogonalEdgeStyle;rounded=0;orthogonalLoop=1;jettySize=auto;html=1;" parent="1" target="rQRDz4Iqr7Op0qweMpyO-594" edge="1">
          <mxGeometry relative="1" as="geometry">
            <mxPoint x="1360" y="567.54" as="sourcePoint" />
          </mxGeometry>
        </mxCell>
        <mxCell id="rQRDz4Iqr7Op0qweMpyO-613" value="Tidak" style="edgeStyle=orthogonalEdgeStyle;rounded=0;orthogonalLoop=1;jettySize=auto;html=1;endArrow=classic;endFill=1;strokeColor=default;endSize=6;startSize=6;jumpSize=6;entryX=1;entryY=0.5;entryDx=0;entryDy=0;" parent="1" source="rQRDz4Iqr7Op0qweMpyO-594" edge="1">
          <mxGeometry x="-0.873" relative="1" as="geometry">
            <mxPoint x="1360" y="507.53999999999996" as="targetPoint" />
            <Array as="points">
              <mxPoint x="1500" y="508.03999999999996" />
              <mxPoint x="1360" y="508.03999999999996" />
            </Array>
            <mxPoint as="offset" />
          </mxGeometry>
        </mxCell>
        <mxCell id="rQRDz4Iqr7Op0qweMpyO-614" value="" style="edgeStyle=orthogonalEdgeStyle;rounded=0;orthogonalLoop=1;jettySize=auto;html=1;exitX=0;exitY=0.5;exitDx=0;exitDy=0;entryX=1;entryY=0.5;entryDx=0;entryDy=0;" parent="1" source="rQRDz4Iqr7Op0qweMpyO-598" target="rQRDz4Iqr7Op0qweMpyO-576" edge="1">
          <mxGeometry relative="1" as="geometry">
            <mxPoint x="1460" y="645.0400000000001" as="sourcePoint" />
            <mxPoint x="1360" y="645.04" as="targetPoint" />
          </mxGeometry>
        </mxCell>
        <mxCell id="rQRDz4Iqr7Op0qweMpyO-615" style="edgeStyle=orthogonalEdgeStyle;rounded=0;orthogonalLoop=1;jettySize=auto;html=1;entryX=0.5;entryY=0;entryDx=0;entryDy=0;" parent="1" target="rQRDz4Iqr7Op0qweMpyO-578" edge="1">
          <mxGeometry relative="1" as="geometry">
            <mxPoint x="1530" y="730" as="sourcePoint" />
            <mxPoint x="1360" y="765.54" as="targetPoint" />
          </mxGeometry>
        </mxCell>
        <mxCell id="rQRDz4Iqr7Op0qweMpyO-616" value="Ya" style="edgeLabel;html=1;align=center;verticalAlign=middle;resizable=0;points=[];" parent="rQRDz4Iqr7Op0qweMpyO-615" vertex="1" connectable="0">
          <mxGeometry x="-0.9086" y="-1" relative="1" as="geometry">
            <mxPoint x="-7" y="1" as="offset" />
          </mxGeometry>
        </mxCell>
        <mxCell id="rQRDz4Iqr7Op0qweMpyO-617" value="" style="edgeStyle=orthogonalEdgeStyle;rounded=0;orthogonalLoop=1;jettySize=auto;html=1;" parent="1" target="rQRDz4Iqr7Op0qweMpyO-601" edge="1">
          <mxGeometry relative="1" as="geometry">
            <mxPoint x="1360" y="825.54" as="sourcePoint" />
          </mxGeometry>
        </mxCell>
        <mxCell id="rQRDz4Iqr7Op0qweMpyO-618" value="Tidak" style="edgeStyle=orthogonalEdgeStyle;rounded=0;orthogonalLoop=1;jettySize=auto;html=1;endArrow=classic;endFill=1;strokeColor=default;endSize=6;startSize=6;jumpSize=6;entryX=1;entryY=0.5;entryDx=0;entryDy=0;" parent="1" source="rQRDz4Iqr7Op0qweMpyO-601" edge="1">
          <mxGeometry x="-0.873" relative="1" as="geometry">
            <mxPoint x="1360" y="765.54" as="targetPoint" />
            <Array as="points">
              <mxPoint x="1500" y="766.04" />
              <mxPoint x="1360" y="766.04" />
            </Array>
            <mxPoint as="offset" />
          </mxGeometry>
        </mxCell>
        <mxCell id="rQRDz4Iqr7Op0qweMpyO-619" value="" style="edgeStyle=orthogonalEdgeStyle;rounded=0;orthogonalLoop=1;jettySize=auto;html=1;exitX=0;exitY=0.5;exitDx=0;exitDy=0;entryX=1;entryY=0.5;entryDx=0;entryDy=0;" parent="1" source="rQRDz4Iqr7Op0qweMpyO-602" target="rQRDz4Iqr7Op0qweMpyO-580" edge="1">
          <mxGeometry relative="1" as="geometry">
            <mxPoint x="1460" y="903.0400000000001" as="sourcePoint" />
            <mxPoint x="1360" y="903.04" as="targetPoint" />
          </mxGeometry>
        </mxCell>
        <mxCell id="rQRDz4Iqr7Op0qweMpyO-620" value="" style="group" parent="1" vertex="1" connectable="0">
          <mxGeometry x="1305" y="955.04" width="30" height="30" as="geometry" />
        </mxCell>
        <mxCell id="rQRDz4Iqr7Op0qweMpyO-621" value="" style="ellipse;whiteSpace=wrap;html=1;aspect=fixed;" parent="rQRDz4Iqr7Op0qweMpyO-620" vertex="1">
          <mxGeometry width="30" height="30" as="geometry" />
        </mxCell>
        <mxCell id="rQRDz4Iqr7Op0qweMpyO-622" value="" style="endArrow=none;html=1;rounded=0;exitX=0;exitY=1;exitDx=0;exitDy=0;entryX=1;entryY=0;entryDx=0;entryDy=0;" parent="rQRDz4Iqr7Op0qweMpyO-620" source="rQRDz4Iqr7Op0qweMpyO-621" target="rQRDz4Iqr7Op0qweMpyO-621" edge="1">
          <mxGeometry width="50" height="50" relative="1" as="geometry">
            <mxPoint x="20" y="60" as="sourcePoint" />
            <mxPoint x="70" y="10" as="targetPoint" />
          </mxGeometry>
        </mxCell>
        <mxCell id="rQRDz4Iqr7Op0qweMpyO-623" value="" style="endArrow=none;html=1;rounded=0;exitX=0;exitY=0;exitDx=0;exitDy=0;entryX=1;entryY=1;entryDx=0;entryDy=0;" parent="rQRDz4Iqr7Op0qweMpyO-620" source="rQRDz4Iqr7Op0qweMpyO-621" target="rQRDz4Iqr7Op0qweMpyO-621" edge="1">
          <mxGeometry width="50" height="50" relative="1" as="geometry">
            <mxPoint x="22" y="78" as="sourcePoint" />
            <mxPoint x="78" y="22" as="targetPoint" />
          </mxGeometry>
        </mxCell>
        <mxCell id="rQRDz4Iqr7Op0qweMpyO-624" value="" style="edgeStyle=orthogonalEdgeStyle;rounded=0;orthogonalLoop=1;jettySize=auto;html=1;" parent="1" source="rQRDz4Iqr7Op0qweMpyO-580" target="rQRDz4Iqr7Op0qweMpyO-621" edge="1">
          <mxGeometry relative="1" as="geometry" />
        </mxCell>
        <mxCell id="rQRDz4Iqr7Op0qweMpyO-625" style="edgeStyle=orthogonalEdgeStyle;rounded=0;orthogonalLoop=1;jettySize=auto;html=1;entryX=0.5;entryY=0;entryDx=0;entryDy=0;" parent="1" source="rQRDz4Iqr7Op0qweMpyO-629" target="rQRDz4Iqr7Op0qweMpyO-631" edge="1">
          <mxGeometry relative="1" as="geometry" />
        </mxCell>
        <mxCell id="rQRDz4Iqr7Op0qweMpyO-626" value="Ya" style="edgeLabel;html=1;align=center;verticalAlign=middle;resizable=0;points=[];" parent="rQRDz4Iqr7Op0qweMpyO-625" vertex="1" connectable="0">
          <mxGeometry x="-0.8086" y="1" relative="1" as="geometry">
            <mxPoint x="2" y="-1" as="offset" />
          </mxGeometry>
        </mxCell>
        <mxCell id="rQRDz4Iqr7Op0qweMpyO-627" value="" style="edgeStyle=orthogonalEdgeStyle;rounded=0;orthogonalLoop=1;jettySize=auto;html=1;entryX=1;entryY=0.5;entryDx=0;entryDy=0;" parent="1" target="rQRDz4Iqr7Op0qweMpyO-585" edge="1">
          <mxGeometry relative="1" as="geometry">
            <mxPoint x="1574.9999999999995" y="1042" as="sourcePoint" />
            <mxPoint x="1361.04" y="1235.52" as="targetPoint" />
            <Array as="points">
              <mxPoint x="1575" y="1230" />
            </Array>
          </mxGeometry>
        </mxCell>
        <mxCell id="rQRDz4Iqr7Op0qweMpyO-628" value="Tidak" style="edgeLabel;html=1;align=center;verticalAlign=middle;resizable=0;points=[];" parent="rQRDz4Iqr7Op0qweMpyO-627" vertex="1" connectable="0">
          <mxGeometry x="-0.1961" y="2" relative="1" as="geometry">
            <mxPoint x="-2" y="-71" as="offset" />
          </mxGeometry>
        </mxCell>
        <mxCell id="rQRDz4Iqr7Op0qweMpyO-638" value="" style="edgeStyle=orthogonalEdgeStyle;rounded=0;orthogonalLoop=1;jettySize=auto;html=1;exitX=1;exitY=0.5;exitDx=0;exitDy=0;" parent="1" source="rQRDz4Iqr7Op0qweMpyO-634" target="rQRDz4Iqr7Op0qweMpyO-640" edge="1">
          <mxGeometry relative="1" as="geometry">
            <mxPoint x="1360" y="1105.04" as="sourcePoint" />
          </mxGeometry>
        </mxCell>
        <mxCell id="rQRDz4Iqr7Op0qweMpyO-639" value="" style="edgeStyle=orthogonalEdgeStyle;rounded=0;orthogonalLoop=1;jettySize=auto;html=1;exitX=0;exitY=0.5;exitDx=0;exitDy=0;entryX=0.5;entryY=0;entryDx=0;entryDy=0;" parent="1" source="rQRDz4Iqr7Op0qweMpyO-637" target="rQRDz4Iqr7Op0qweMpyO-585" edge="1">
          <mxGeometry relative="1" as="geometry">
            <mxPoint x="1460" y="1182.54" as="sourcePoint" />
            <mxPoint x="1360" y="1182.54" as="targetPoint" />
          </mxGeometry>
        </mxCell>
        <mxCell id="rQRDz4Iqr7Op0qweMpyO-641" value="Tidak" style="edgeStyle=orthogonalEdgeStyle;rounded=0;orthogonalLoop=1;jettySize=auto;html=1;endArrow=classic;endFill=1;strokeColor=default;endSize=6;startSize=6;jumpSize=6;entryX=1;entryY=0.5;entryDx=0;entryDy=0;exitX=0.507;exitY=-0.029;exitDx=0;exitDy=0;exitPerimeter=0;" parent="1" source="rQRDz4Iqr7Op0qweMpyO-640" target="rQRDz4Iqr7Op0qweMpyO-631" edge="1">
          <mxGeometry x="-0.873" relative="1" as="geometry">
            <mxPoint x="1360" y="1025.04" as="targetPoint" />
            <mxPoint x="1500" y="1045.54" as="sourcePoint" />
            <Array as="points">
              <mxPoint x="1501" y="1040" />
            </Array>
            <mxPoint as="offset" />
          </mxGeometry>
        </mxCell>
        <mxCell id="rQRDz4Iqr7Op0qweMpyO-642" value="" style="edgeStyle=orthogonalEdgeStyle;rounded=0;orthogonalLoop=1;jettySize=auto;html=1;" parent="1" source="rQRDz4Iqr7Op0qweMpyO-585" target="rQRDz4Iqr7Op0qweMpyO-607" edge="1">
          <mxGeometry relative="1" as="geometry" />
        </mxCell>
        <mxCell id="rQRDz4Iqr7Op0qweMpyO-643" value="Admin" style="swimlane;whiteSpace=wrap" parent="1" vertex="1">
          <mxGeometry x="1790" y="120" width="240" height="640" as="geometry" />
        </mxCell>
        <mxCell id="rQRDz4Iqr7Op0qweMpyO-644" value="" style="ellipse;shape=startState;fillColor=#000000;strokeColor=#000000;" parent="rQRDz4Iqr7Op0qweMpyO-643" vertex="1">
          <mxGeometry x="105" y="40" width="30" height="30" as="geometry" />
        </mxCell>
        <mxCell id="rQRDz4Iqr7Op0qweMpyO-645" value="" style="edgeStyle=elbowEdgeStyle;elbow=horizontal;verticalAlign=bottom;endArrow=open;endSize=8;strokeColor=#000000;endFill=1;rounded=0;entryX=0.5;entryY=0;entryDx=0;entryDy=0;entryPerimeter=0;" parent="rQRDz4Iqr7Op0qweMpyO-643" edge="1">
          <mxGeometry x="100" y="40" as="geometry">
            <mxPoint x="115" y="100" as="targetPoint" />
            <mxPoint x="114.71428571428578" y="100" as="sourcePoint" />
          </mxGeometry>
        </mxCell>
        <mxCell id="rQRDz4Iqr7Op0qweMpyO-646" value="" style="edgeStyle=elbowEdgeStyle;elbow=horizontal;verticalAlign=bottom;endArrow=open;endSize=8;strokeColor=#000000;endFill=1;rounded=0;entryX=0.5;entryY=0;entryDx=0;entryDy=0;entryPerimeter=0;" parent="rQRDz4Iqr7Op0qweMpyO-643" source="rQRDz4Iqr7Op0qweMpyO-644" edge="1">
          <mxGeometry x="100" y="40" as="geometry">
            <mxPoint x="120" y="100" as="targetPoint" />
            <mxPoint x="155" y="190" as="sourcePoint" />
          </mxGeometry>
        </mxCell>
        <mxCell id="rQRDz4Iqr7Op0qweMpyO-647" value="Login" style="rounded=1;whiteSpace=wrap;html=1;arcSize=40;fontColor=#000000;fillColor=#FFFFFF;strokeColor=#000000;" parent="rQRDz4Iqr7Op0qweMpyO-643" vertex="1">
          <mxGeometry x="80" y="100" width="80" height="40" as="geometry" />
        </mxCell>
        <mxCell id="rQRDz4Iqr7Op0qweMpyO-648" value="Pilih Menu Transaction" style="rounded=1;whiteSpace=wrap;html=1;arcSize=40;fontColor=#000000;fillColor=#FFFFFF;strokeColor=#000000;" parent="rQRDz4Iqr7Op0qweMpyO-643" vertex="1">
          <mxGeometry x="80" y="240" width="80" height="40" as="geometry" />
        </mxCell>
        <mxCell id="rQRDz4Iqr7Op0qweMpyO-649" value="" style="edgeStyle=orthogonalEdgeStyle;rounded=0;orthogonalLoop=1;jettySize=auto;html=1;" parent="rQRDz4Iqr7Op0qweMpyO-643" source="rQRDz4Iqr7Op0qweMpyO-650" target="rQRDz4Iqr7Op0qweMpyO-651" edge="1">
          <mxGeometry relative="1" as="geometry" />
        </mxCell>
        <mxCell id="rQRDz4Iqr7Op0qweMpyO-650" value="Konfirmasi Pembayaran" style="rounded=1;whiteSpace=wrap;html=1;arcSize=40;fontColor=#000000;fillColor=#FFFFFF;strokeColor=#000000;" parent="rQRDz4Iqr7Op0qweMpyO-643" vertex="1">
          <mxGeometry x="80" y="362.5" width="80" height="40" as="geometry" />
        </mxCell>
        <mxCell id="rQRDz4Iqr7Op0qweMpyO-651" value="Submit" style="rounded=1;whiteSpace=wrap;html=1;arcSize=40;fontColor=#000000;fillColor=#FFFFFF;strokeColor=#000000;" parent="rQRDz4Iqr7Op0qweMpyO-643" vertex="1">
          <mxGeometry x="80" y="430" width="80" height="40" as="geometry" />
        </mxCell>
        <mxCell id="rQRDz4Iqr7Op0qweMpyO-662" value="Lihat Data Transaction" style="rounded=1;whiteSpace=wrap;html=1;arcSize=40;fontColor=#000000;fillColor=#FFFFFF;strokeColor=#000000;" parent="rQRDz4Iqr7Op0qweMpyO-643" vertex="1">
          <mxGeometry x="80" y="540" width="80" height="40" as="geometry" />
        </mxCell>
        <mxCell id="rQRDz4Iqr7Op0qweMpyO-684" value="" style="ellipse;shape=endState;fillColor=#000000;strokeColor=#000000;" parent="rQRDz4Iqr7Op0qweMpyO-643" vertex="1">
          <mxGeometry x="105" y="600" width="30" height="30" as="geometry" />
        </mxCell>
        <mxCell id="rQRDz4Iqr7Op0qweMpyO-719" value="" style="edgeStyle=orthogonalEdgeStyle;rounded=0;orthogonalLoop=1;jettySize=auto;html=1;" parent="rQRDz4Iqr7Op0qweMpyO-643" source="rQRDz4Iqr7Op0qweMpyO-662" target="rQRDz4Iqr7Op0qweMpyO-684" edge="1">
          <mxGeometry relative="1" as="geometry" />
        </mxCell>
        <mxCell id="rQRDz4Iqr7Op0qweMpyO-663" value="Sistem" style="swimlane;whiteSpace=wrap;startSize=23;" parent="1" vertex="1">
          <mxGeometry x="2030" y="120" width="240" height="640" as="geometry" />
        </mxCell>
        <mxCell id="rQRDz4Iqr7Op0qweMpyO-664" value="Ya" style="edgeStyle=orthogonalEdgeStyle;rounded=0;orthogonalLoop=1;jettySize=auto;html=1;entryX=0.5;entryY=0;entryDx=0;entryDy=0;exitX=0.5;exitY=1;exitDx=0;exitDy=0;" parent="rQRDz4Iqr7Op0qweMpyO-663" source="rQRDz4Iqr7Op0qweMpyO-668" edge="1">
          <mxGeometry x="-0.3333" relative="1" as="geometry">
            <mxPoint x="135" y="180" as="targetPoint" />
            <mxPoint as="offset" />
            <mxPoint x="129.9999999999999" y="155" as="sourcePoint" />
          </mxGeometry>
        </mxCell>
        <mxCell id="rQRDz4Iqr7Op0qweMpyO-666" value="Detail Transaction" style="strokeWidth=2;html=1;shape=mxgraph.flowchart.decision;whiteSpace=wrap;" parent="rQRDz4Iqr7Op0qweMpyO-663" vertex="1">
          <mxGeometry x="95" y="302.5" width="80" height="80" as="geometry" />
        </mxCell>
        <mxCell id="rQRDz4Iqr7Op0qweMpyO-668" value="Verifikasi" style="rhombus;whiteSpace=wrap;html=1;" parent="rQRDz4Iqr7Op0qweMpyO-663" vertex="1">
          <mxGeometry x="95" y="80" width="80" height="80" as="geometry" />
        </mxCell>
        <mxCell id="rQRDz4Iqr7Op0qweMpyO-671" value="Validasi" style="rhombus;whiteSpace=wrap;html=1;" parent="rQRDz4Iqr7Op0qweMpyO-663" vertex="1">
          <mxGeometry x="20" y="402.5" width="80" height="80" as="geometry" />
        </mxCell>
        <mxCell id="rQRDz4Iqr7Op0qweMpyO-673" value="Tampil Dashboard" style="rounded=1;whiteSpace=wrap;html=1;arcSize=40;fontColor=#000000;fillColor=#FFFFFF;strokeColor=#000000;" parent="rQRDz4Iqr7Op0qweMpyO-663" vertex="1">
          <mxGeometry x="95" y="180" width="80" height="40" as="geometry" />
        </mxCell>
        <mxCell id="rQRDz4Iqr7Op0qweMpyO-721" style="edgeStyle=orthogonalEdgeStyle;rounded=0;orthogonalLoop=1;jettySize=auto;html=1;entryX=0.5;entryY=0;entryDx=0;entryDy=0;entryPerimeter=0;" parent="rQRDz4Iqr7Op0qweMpyO-663" source="rQRDz4Iqr7Op0qweMpyO-674" target="rQRDz4Iqr7Op0qweMpyO-666" edge="1">
          <mxGeometry relative="1" as="geometry" />
        </mxCell>
        <mxCell id="rQRDz4Iqr7Op0qweMpyO-674" value="Tampil Data Transaction" style="rounded=1;whiteSpace=wrap;html=1;arcSize=40;fontColor=#000000;fillColor=#FFFFFF;strokeColor=#000000;" parent="rQRDz4Iqr7Op0qweMpyO-663" vertex="1">
          <mxGeometry x="95" y="240" width="80" height="40" as="geometry" />
        </mxCell>
        <mxCell id="rQRDz4Iqr7Op0qweMpyO-704" value="" style="edgeStyle=orthogonalEdgeStyle;rounded=0;orthogonalLoop=1;jettySize=auto;html=1;entryX=1;entryY=0.5;entryDx=0;entryDy=0;" parent="rQRDz4Iqr7Op0qweMpyO-663" target="rQRDz4Iqr7Op0qweMpyO-662" edge="1">
          <mxGeometry relative="1" as="geometry">
            <mxPoint x="135" y="382.4999999999998" as="sourcePoint" />
            <mxPoint x="-80" y="542.5" as="targetPoint" />
            <Array as="points">
              <mxPoint x="135" y="560" />
            </Array>
          </mxGeometry>
        </mxCell>
        <mxCell id="rQRDz4Iqr7Op0qweMpyO-705" value="Tidak" style="edgeLabel;html=1;align=center;verticalAlign=middle;resizable=0;points=[];" parent="rQRDz4Iqr7Op0qweMpyO-704" vertex="1" connectable="0">
          <mxGeometry x="-0.1961" y="2" relative="1" as="geometry">
            <mxPoint x="-2" y="-71" as="offset" />
          </mxGeometry>
        </mxCell>
        <mxCell id="rQRDz4Iqr7Op0qweMpyO-712" value="" style="edgeStyle=orthogonalEdgeStyle;rounded=0;orthogonalLoop=1;jettySize=auto;html=1;" parent="rQRDz4Iqr7Op0qweMpyO-663" target="rQRDz4Iqr7Op0qweMpyO-714" edge="1">
          <mxGeometry relative="1" as="geometry">
            <mxPoint x="60" y="482.4999999999998" as="sourcePoint" />
          </mxGeometry>
        </mxCell>
        <mxCell id="rQRDz4Iqr7Op0qweMpyO-714" value="Tampil Sukses Alert" style="rounded=1;whiteSpace=wrap;html=1;arcSize=40;fontColor=#000000;fillColor=#FFFFFF;strokeColor=#000000;" parent="rQRDz4Iqr7Op0qweMpyO-663" vertex="1">
          <mxGeometry x="20" y="500" width="80" height="40" as="geometry" />
        </mxCell>
        <mxCell id="rQRDz4Iqr7Op0qweMpyO-680" style="edgeStyle=orthogonalEdgeStyle;rounded=0;orthogonalLoop=1;jettySize=auto;html=1;entryX=0;entryY=0.5;entryDx=0;entryDy=0;exitX=1;exitY=0.5;exitDx=0;exitDy=0;" parent="1" target="rQRDz4Iqr7Op0qweMpyO-668" edge="1">
          <mxGeometry relative="1" as="geometry">
            <mxPoint x="1950" y="240" as="sourcePoint" />
            <mxPoint x="2110" y="230" as="targetPoint" />
          </mxGeometry>
        </mxCell>
        <mxCell id="rQRDz4Iqr7Op0qweMpyO-681" style="edgeStyle=orthogonalEdgeStyle;rounded=0;orthogonalLoop=1;jettySize=auto;html=1;entryX=0.5;entryY=0;entryDx=0;entryDy=0;exitX=0;exitY=0.5;exitDx=0;exitDy=0;" parent="1" edge="1">
          <mxGeometry relative="1" as="geometry">
            <mxPoint x="2125" y="320" as="sourcePoint" />
            <mxPoint x="1910" y="360" as="targetPoint" />
            <Array as="points">
              <mxPoint x="2110" y="320" />
              <mxPoint x="1910" y="320" />
            </Array>
          </mxGeometry>
        </mxCell>
        <mxCell id="rQRDz4Iqr7Op0qweMpyO-682" value="Transaction Management" style="text;html=1;align=center;verticalAlign=middle;resizable=0;points=[];autosize=1;strokeColor=none;fillColor=none;" parent="1" vertex="1">
          <mxGeometry x="1950" y="80" width="160" height="30" as="geometry" />
        </mxCell>
        <mxCell id="rQRDz4Iqr7Op0qweMpyO-683" style="edgeStyle=orthogonalEdgeStyle;rounded=0;orthogonalLoop=1;jettySize=auto;html=1;entryX=0;entryY=0.5;entryDx=0;entryDy=0;" parent="1" edge="1">
          <mxGeometry relative="1" as="geometry">
            <mxPoint x="1950" y="380.0000000000001" as="sourcePoint" />
            <mxPoint x="2125" y="380" as="targetPoint" />
          </mxGeometry>
        </mxCell>
        <mxCell id="rQRDz4Iqr7Op0qweMpyO-685" value="" style="endArrow=classic;html=1;rounded=0;entryX=1;entryY=0.5;entryDx=0;entryDy=0;exitX=1;exitY=0.5;exitDx=0;exitDy=0;" parent="1" source="rQRDz4Iqr7Op0qweMpyO-668" target="rQRDz4Iqr7Op0qweMpyO-644" edge="1">
          <mxGeometry relative="1" as="geometry">
            <mxPoint x="2210" y="240" as="sourcePoint" />
            <mxPoint x="2340" y="322" as="targetPoint" />
            <Array as="points">
              <mxPoint x="2240" y="240" />
              <mxPoint x="2240" y="175" />
            </Array>
          </mxGeometry>
        </mxCell>
        <mxCell id="rQRDz4Iqr7Op0qweMpyO-686" value="Tidak" style="edgeLabel;resizable=0;html=1;align=center;verticalAlign=middle;" parent="rQRDz4Iqr7Op0qweMpyO-685" connectable="0" vertex="1">
          <mxGeometry relative="1" as="geometry">
            <mxPoint x="90" y="65" as="offset" />
          </mxGeometry>
        </mxCell>
        <mxCell id="rQRDz4Iqr7Op0qweMpyO-687" style="edgeStyle=orthogonalEdgeStyle;rounded=0;orthogonalLoop=1;jettySize=auto;html=1;entryX=0.5;entryY=0;entryDx=0;entryDy=0;exitX=0;exitY=0.5;exitDx=0;exitDy=0;exitPerimeter=0;" parent="1" source="rQRDz4Iqr7Op0qweMpyO-666" target="rQRDz4Iqr7Op0qweMpyO-650" edge="1">
          <mxGeometry relative="1" as="geometry">
            <mxPoint x="2125" y="502.5000000000001" as="sourcePoint" />
            <mxPoint x="1950" y="502.5" as="targetPoint" />
          </mxGeometry>
        </mxCell>
        <mxCell id="rQRDz4Iqr7Op0qweMpyO-688" value="Ya" style="edgeLabel;html=1;align=center;verticalAlign=middle;resizable=0;points=[];" parent="rQRDz4Iqr7Op0qweMpyO-687" vertex="1" connectable="0">
          <mxGeometry x="-0.9086" y="-1" relative="1" as="geometry">
            <mxPoint x="-7" y="1" as="offset" />
          </mxGeometry>
        </mxCell>
        <mxCell id="rQRDz4Iqr7Op0qweMpyO-689" value="" style="edgeStyle=orthogonalEdgeStyle;rounded=0;orthogonalLoop=1;jettySize=auto;html=1;" parent="1" target="rQRDz4Iqr7Op0qweMpyO-671" edge="1">
          <mxGeometry relative="1" as="geometry">
            <mxPoint x="1950" y="562.5" as="sourcePoint" />
          </mxGeometry>
        </mxCell>
        <mxCell id="rQRDz4Iqr7Op0qweMpyO-690" value="Tidak" style="edgeStyle=orthogonalEdgeStyle;rounded=0;orthogonalLoop=1;jettySize=auto;html=1;endArrow=classic;endFill=1;strokeColor=default;endSize=6;startSize=6;jumpSize=6;entryX=1;entryY=0.5;entryDx=0;entryDy=0;" parent="1" source="rQRDz4Iqr7Op0qweMpyO-671" target="rQRDz4Iqr7Op0qweMpyO-650" edge="1">
          <mxGeometry x="-0.873" relative="1" as="geometry">
            <mxPoint x="1950" y="502.5" as="targetPoint" />
            <Array as="points">
              <mxPoint x="2090" y="500" />
              <mxPoint x="1950" y="500" />
            </Array>
            <mxPoint as="offset" />
          </mxGeometry>
        </mxCell>
        <mxCell id="rQRDz4Iqr7Op0qweMpyO-716" value="" style="edgeStyle=orthogonalEdgeStyle;rounded=0;orthogonalLoop=1;jettySize=auto;html=1;exitX=0;exitY=0.5;exitDx=0;exitDy=0;entryX=0.5;entryY=0;entryDx=0;entryDy=0;" parent="1" source="rQRDz4Iqr7Op0qweMpyO-714" target="rQRDz4Iqr7Op0qweMpyO-662" edge="1">
          <mxGeometry relative="1" as="geometry">
            <mxPoint x="2050" y="660" as="sourcePoint" />
            <mxPoint x="1950" y="660" as="targetPoint" />
          </mxGeometry>
        </mxCell>
        <mxCell id="rQRDz4Iqr7Op0qweMpyO-877" value="Admin" style="swimlane;whiteSpace=wrap" parent="1" vertex="1">
          <mxGeometry x="640" y="120" width="240" height="1180" as="geometry" />
        </mxCell>
        <mxCell id="rQRDz4Iqr7Op0qweMpyO-878" value="" style="ellipse;shape=startState;fillColor=#000000;strokeColor=#000000;" parent="rQRDz4Iqr7Op0qweMpyO-877" vertex="1">
          <mxGeometry x="105" y="40" width="30" height="30" as="geometry" />
        </mxCell>
        <mxCell id="rQRDz4Iqr7Op0qweMpyO-879" value="" style="edgeStyle=elbowEdgeStyle;elbow=horizontal;verticalAlign=bottom;endArrow=open;endSize=8;strokeColor=#000000;endFill=1;rounded=0;entryX=0.5;entryY=0;entryDx=0;entryDy=0;entryPerimeter=0;" parent="rQRDz4Iqr7Op0qweMpyO-877" edge="1">
          <mxGeometry x="100" y="40" as="geometry">
            <mxPoint x="115" y="100" as="targetPoint" />
            <mxPoint x="114.71428571428578" y="100" as="sourcePoint" />
          </mxGeometry>
        </mxCell>
        <mxCell id="rQRDz4Iqr7Op0qweMpyO-880" value="" style="edgeStyle=elbowEdgeStyle;elbow=horizontal;verticalAlign=bottom;endArrow=open;endSize=8;strokeColor=#000000;endFill=1;rounded=0;entryX=0.5;entryY=0;entryDx=0;entryDy=0;entryPerimeter=0;" parent="rQRDz4Iqr7Op0qweMpyO-877" source="rQRDz4Iqr7Op0qweMpyO-878" edge="1">
          <mxGeometry x="100" y="40" as="geometry">
            <mxPoint x="120" y="100" as="targetPoint" />
            <mxPoint x="155" y="190" as="sourcePoint" />
          </mxGeometry>
        </mxCell>
        <mxCell id="rQRDz4Iqr7Op0qweMpyO-881" value="Login" style="rounded=1;whiteSpace=wrap;html=1;arcSize=40;fontColor=#000000;fillColor=#FFFFFF;strokeColor=#000000;" parent="rQRDz4Iqr7Op0qweMpyO-877" vertex="1">
          <mxGeometry x="80" y="100" width="80" height="40" as="geometry" />
        </mxCell>
        <mxCell id="rQRDz4Iqr7Op0qweMpyO-882" value="Pilih Menu&amp;nbsp;Paket" style="rounded=1;whiteSpace=wrap;html=1;arcSize=40;fontColor=#000000;fillColor=#FFFFFF;strokeColor=#000000;" parent="rQRDz4Iqr7Op0qweMpyO-877" vertex="1">
          <mxGeometry x="80" y="240" width="80" height="40" as="geometry" />
        </mxCell>
        <mxCell id="rQRDz4Iqr7Op0qweMpyO-883" value="" style="edgeStyle=orthogonalEdgeStyle;rounded=0;orthogonalLoop=1;jettySize=auto;html=1;" parent="rQRDz4Iqr7Op0qweMpyO-877" source="rQRDz4Iqr7Op0qweMpyO-884" target="rQRDz4Iqr7Op0qweMpyO-885" edge="1">
          <mxGeometry relative="1" as="geometry" />
        </mxCell>
        <mxCell id="rQRDz4Iqr7Op0qweMpyO-884" value="Input Data Paket" style="rounded=1;whiteSpace=wrap;html=1;arcSize=40;fontColor=#000000;fillColor=#FFFFFF;strokeColor=#000000;" parent="rQRDz4Iqr7Op0qweMpyO-877" vertex="1">
          <mxGeometry x="80" y="365.03999999999996" width="80" height="40" as="geometry" />
        </mxCell>
        <mxCell id="rQRDz4Iqr7Op0qweMpyO-885" value="Submit" style="rounded=1;whiteSpace=wrap;html=1;arcSize=40;fontColor=#000000;fillColor=#FFFFFF;strokeColor=#000000;" parent="rQRDz4Iqr7Op0qweMpyO-877" vertex="1">
          <mxGeometry x="80" y="435.03999999999996" width="80" height="40" as="geometry" />
        </mxCell>
        <mxCell id="rQRDz4Iqr7Op0qweMpyO-886" value="" style="edgeStyle=orthogonalEdgeStyle;rounded=0;orthogonalLoop=1;jettySize=auto;html=1;" parent="rQRDz4Iqr7Op0qweMpyO-877" source="rQRDz4Iqr7Op0qweMpyO-887" target="rQRDz4Iqr7Op0qweMpyO-893" edge="1">
          <mxGeometry relative="1" as="geometry" />
        </mxCell>
        <mxCell id="rQRDz4Iqr7Op0qweMpyO-887" value="Lihat Data Paket" style="rounded=1;whiteSpace=wrap;html=1;arcSize=40;fontColor=#000000;fillColor=#FFFFFF;strokeColor=#000000;" parent="rQRDz4Iqr7Op0qweMpyO-877" vertex="1">
          <mxGeometry x="80" y="515.04" width="80" height="40" as="geometry" />
        </mxCell>
        <mxCell id="rQRDz4Iqr7Op0qweMpyO-888" value="" style="edgeStyle=orthogonalEdgeStyle;rounded=0;orthogonalLoop=1;jettySize=auto;html=1;" parent="rQRDz4Iqr7Op0qweMpyO-877" source="rQRDz4Iqr7Op0qweMpyO-889" target="rQRDz4Iqr7Op0qweMpyO-890" edge="1">
          <mxGeometry relative="1" as="geometry" />
        </mxCell>
        <mxCell id="rQRDz4Iqr7Op0qweMpyO-889" value="Edit Data Paket" style="rounded=1;whiteSpace=wrap;html=1;arcSize=40;fontColor=#000000;fillColor=#FFFFFF;strokeColor=#000000;" parent="rQRDz4Iqr7Op0qweMpyO-877" vertex="1">
          <mxGeometry x="80" y="630" width="80" height="40" as="geometry" />
        </mxCell>
        <mxCell id="rQRDz4Iqr7Op0qweMpyO-890" value="Submit" style="rounded=1;whiteSpace=wrap;html=1;arcSize=40;fontColor=#000000;fillColor=#FFFFFF;strokeColor=#000000;" parent="rQRDz4Iqr7Op0qweMpyO-877" vertex="1">
          <mxGeometry x="80" y="693.04" width="80" height="40" as="geometry" />
        </mxCell>
        <mxCell id="rQRDz4Iqr7Op0qweMpyO-891" value="Lihat Data Paket" style="rounded=1;whiteSpace=wrap;html=1;arcSize=40;fontColor=#000000;fillColor=#FFFFFF;strokeColor=#000000;" parent="rQRDz4Iqr7Op0qweMpyO-877" vertex="1">
          <mxGeometry x="80" y="773.04" width="80" height="40" as="geometry" />
        </mxCell>
        <mxCell id="rQRDz4Iqr7Op0qweMpyO-892" value="" style="group" parent="rQRDz4Iqr7Op0qweMpyO-877" vertex="1" connectable="0">
          <mxGeometry x="105" y="570" width="30" height="30" as="geometry" />
        </mxCell>
        <mxCell id="rQRDz4Iqr7Op0qweMpyO-893" value="" style="ellipse;whiteSpace=wrap;html=1;aspect=fixed;" parent="rQRDz4Iqr7Op0qweMpyO-892" vertex="1">
          <mxGeometry width="30" height="30" as="geometry" />
        </mxCell>
        <mxCell id="rQRDz4Iqr7Op0qweMpyO-894" value="" style="endArrow=none;html=1;rounded=0;exitX=0;exitY=1;exitDx=0;exitDy=0;entryX=1;entryY=0;entryDx=0;entryDy=0;" parent="rQRDz4Iqr7Op0qweMpyO-892" source="rQRDz4Iqr7Op0qweMpyO-893" target="rQRDz4Iqr7Op0qweMpyO-893" edge="1">
          <mxGeometry width="50" height="50" relative="1" as="geometry">
            <mxPoint x="20" y="60" as="sourcePoint" />
            <mxPoint x="70" y="10" as="targetPoint" />
          </mxGeometry>
        </mxCell>
        <mxCell id="rQRDz4Iqr7Op0qweMpyO-895" value="" style="endArrow=none;html=1;rounded=0;exitX=0;exitY=0;exitDx=0;exitDy=0;entryX=1;entryY=1;entryDx=0;entryDy=0;" parent="rQRDz4Iqr7Op0qweMpyO-892" source="rQRDz4Iqr7Op0qweMpyO-893" target="rQRDz4Iqr7Op0qweMpyO-893" edge="1">
          <mxGeometry width="50" height="50" relative="1" as="geometry">
            <mxPoint x="22" y="78" as="sourcePoint" />
            <mxPoint x="78" y="22" as="targetPoint" />
          </mxGeometry>
        </mxCell>
        <mxCell id="rQRDz4Iqr7Op0qweMpyO-896" value="Lihat Data Paket" style="rounded=1;whiteSpace=wrap;html=1;arcSize=40;fontColor=#000000;fillColor=#FFFFFF;strokeColor=#000000;" parent="rQRDz4Iqr7Op0qweMpyO-877" vertex="1">
          <mxGeometry x="80" y="1090" width="80" height="40" as="geometry" />
        </mxCell>
        <mxCell id="rQRDz4Iqr7Op0qweMpyO-897" value="Pilih Data Paket" style="rounded=1;whiteSpace=wrap;html=1;arcSize=40;fontColor=#000000;fillColor=#FFFFFF;strokeColor=#000000;" parent="rQRDz4Iqr7Op0qweMpyO-877" vertex="1">
          <mxGeometry x="80" y="900" width="80" height="40" as="geometry" />
        </mxCell>
        <mxCell id="rQRDz4Iqr7Op0qweMpyO-898" value="Hapus Data Paket" style="rounded=1;whiteSpace=wrap;html=1;arcSize=40;fontColor=#000000;fillColor=#FFFFFF;strokeColor=#000000;" parent="rQRDz4Iqr7Op0qweMpyO-877" vertex="1">
          <mxGeometry x="80" y="960" width="80" height="40" as="geometry" />
        </mxCell>
        <mxCell id="rQRDz4Iqr7Op0qweMpyO-899" value="" style="edgeStyle=orthogonalEdgeStyle;rounded=0;orthogonalLoop=1;jettySize=auto;html=1;" parent="rQRDz4Iqr7Op0qweMpyO-877" source="rQRDz4Iqr7Op0qweMpyO-897" target="rQRDz4Iqr7Op0qweMpyO-898" edge="1">
          <mxGeometry relative="1" as="geometry" />
        </mxCell>
        <mxCell id="rQRDz4Iqr7Op0qweMpyO-900" value="Sistem" style="swimlane;whiteSpace=wrap;startSize=23;" parent="1" vertex="1">
          <mxGeometry x="880" y="120" width="240" height="1180" as="geometry" />
        </mxCell>
        <mxCell id="rQRDz4Iqr7Op0qweMpyO-901" value="Ya" style="edgeStyle=orthogonalEdgeStyle;rounded=0;orthogonalLoop=1;jettySize=auto;html=1;entryX=0.5;entryY=0;entryDx=0;entryDy=0;exitX=0.5;exitY=1;exitDx=0;exitDy=0;" parent="rQRDz4Iqr7Op0qweMpyO-900" source="rQRDz4Iqr7Op0qweMpyO-904" edge="1">
          <mxGeometry x="-0.3333" relative="1" as="geometry">
            <mxPoint x="135" y="180" as="targetPoint" />
            <mxPoint as="offset" />
            <mxPoint x="129.9999999999999" y="155" as="sourcePoint" />
          </mxGeometry>
        </mxCell>
        <mxCell id="rQRDz4Iqr7Op0qweMpyO-902" value="Tidak" style="edgeStyle=orthogonalEdgeStyle;rounded=0;orthogonalLoop=1;jettySize=auto;html=1;entryX=0.5;entryY=0;entryDx=0;entryDy=0;entryPerimeter=0;exitX=0.5;exitY=1;exitDx=0;exitDy=0;exitPerimeter=0;" parent="rQRDz4Iqr7Op0qweMpyO-900" source="rQRDz4Iqr7Op0qweMpyO-903" target="rQRDz4Iqr7Op0qweMpyO-908" edge="1">
          <mxGeometry x="-0.0182" relative="1" as="geometry">
            <mxPoint x="135" y="525.04" as="targetPoint" />
            <mxPoint as="offset" />
            <mxPoint x="135" y="427.5400000000001" as="sourcePoint" />
          </mxGeometry>
        </mxCell>
        <mxCell id="rQRDz4Iqr7Op0qweMpyO-903" value="Tambah &lt;br&gt;Paket" style="strokeWidth=2;html=1;shape=mxgraph.flowchart.decision;whiteSpace=wrap;" parent="rQRDz4Iqr7Op0qweMpyO-900" vertex="1">
          <mxGeometry x="95" y="302.5" width="80" height="80" as="geometry" />
        </mxCell>
        <mxCell id="rQRDz4Iqr7Op0qweMpyO-904" value="Verifikasi" style="rhombus;whiteSpace=wrap;html=1;" parent="rQRDz4Iqr7Op0qweMpyO-900" vertex="1">
          <mxGeometry x="95" y="80" width="80" height="80" as="geometry" />
        </mxCell>
        <mxCell id="rQRDz4Iqr7Op0qweMpyO-905" value="" style="edgeStyle=orthogonalEdgeStyle;rounded=0;orthogonalLoop=1;jettySize=auto;html=1;" parent="rQRDz4Iqr7Op0qweMpyO-900" source="rQRDz4Iqr7Op0qweMpyO-907" target="rQRDz4Iqr7Op0qweMpyO-912" edge="1">
          <mxGeometry relative="1" as="geometry" />
        </mxCell>
        <mxCell id="rQRDz4Iqr7Op0qweMpyO-906" value="Ya" style="edgeLabel;html=1;align=center;verticalAlign=middle;resizable=0;points=[];" parent="rQRDz4Iqr7Op0qweMpyO-905" vertex="1" connectable="0">
          <mxGeometry x="0.591" relative="1" as="geometry">
            <mxPoint y="-9" as="offset" />
          </mxGeometry>
        </mxCell>
        <mxCell id="rQRDz4Iqr7Op0qweMpyO-907" value="Validasi" style="rhombus;whiteSpace=wrap;html=1;" parent="rQRDz4Iqr7Op0qweMpyO-900" vertex="1">
          <mxGeometry x="20" y="407.53999999999996" width="80" height="80" as="geometry" />
        </mxCell>
        <mxCell id="rQRDz4Iqr7Op0qweMpyO-908" value="Edit Paket" style="strokeWidth=2;html=1;shape=mxgraph.flowchart.decision;whiteSpace=wrap;" parent="rQRDz4Iqr7Op0qweMpyO-900" vertex="1">
          <mxGeometry x="95" y="570" width="80" height="80" as="geometry" />
        </mxCell>
        <mxCell id="rQRDz4Iqr7Op0qweMpyO-909" value="Tampil Dashboard" style="rounded=1;whiteSpace=wrap;html=1;arcSize=40;fontColor=#000000;fillColor=#FFFFFF;strokeColor=#000000;" parent="rQRDz4Iqr7Op0qweMpyO-900" vertex="1">
          <mxGeometry x="95" y="180" width="80" height="40" as="geometry" />
        </mxCell>
        <mxCell id="rQRDz4Iqr7Op0qweMpyO-910" value="" style="edgeStyle=orthogonalEdgeStyle;rounded=0;orthogonalLoop=1;jettySize=auto;html=1;" parent="rQRDz4Iqr7Op0qweMpyO-900" source="rQRDz4Iqr7Op0qweMpyO-911" target="rQRDz4Iqr7Op0qweMpyO-903" edge="1">
          <mxGeometry relative="1" as="geometry" />
        </mxCell>
        <mxCell id="rQRDz4Iqr7Op0qweMpyO-911" value="Tampil Data Paket" style="rounded=1;whiteSpace=wrap;html=1;arcSize=40;fontColor=#000000;fillColor=#FFFFFF;strokeColor=#000000;" parent="rQRDz4Iqr7Op0qweMpyO-900" vertex="1">
          <mxGeometry x="95" y="240" width="80" height="40" as="geometry" />
        </mxCell>
        <mxCell id="rQRDz4Iqr7Op0qweMpyO-912" value="Tampil Sukses Alert" style="rounded=1;whiteSpace=wrap;html=1;arcSize=40;fontColor=#000000;fillColor=#FFFFFF;strokeColor=#000000;" parent="rQRDz4Iqr7Op0qweMpyO-900" vertex="1">
          <mxGeometry x="20" y="515.04" width="80" height="40" as="geometry" />
        </mxCell>
        <mxCell id="rQRDz4Iqr7Op0qweMpyO-913" value="" style="edgeStyle=orthogonalEdgeStyle;rounded=0;orthogonalLoop=1;jettySize=auto;html=1;" parent="rQRDz4Iqr7Op0qweMpyO-900" source="rQRDz4Iqr7Op0qweMpyO-915" target="rQRDz4Iqr7Op0qweMpyO-916" edge="1">
          <mxGeometry relative="1" as="geometry" />
        </mxCell>
        <mxCell id="rQRDz4Iqr7Op0qweMpyO-914" value="Ya" style="edgeLabel;html=1;align=center;verticalAlign=middle;resizable=0;points=[];" parent="rQRDz4Iqr7Op0qweMpyO-913" vertex="1" connectable="0">
          <mxGeometry x="0.591" relative="1" as="geometry">
            <mxPoint y="-9" as="offset" />
          </mxGeometry>
        </mxCell>
        <mxCell id="rQRDz4Iqr7Op0qweMpyO-915" value="Validasi" style="rhombus;whiteSpace=wrap;html=1;" parent="rQRDz4Iqr7Op0qweMpyO-900" vertex="1">
          <mxGeometry x="20" y="665.54" width="80" height="80" as="geometry" />
        </mxCell>
        <mxCell id="rQRDz4Iqr7Op0qweMpyO-916" value="Tampil Sukses Alert" style="rounded=1;whiteSpace=wrap;html=1;arcSize=40;fontColor=#000000;fillColor=#FFFFFF;strokeColor=#000000;" parent="rQRDz4Iqr7Op0qweMpyO-900" vertex="1">
          <mxGeometry x="20" y="773.04" width="80" height="40" as="geometry" />
        </mxCell>
        <mxCell id="rQRDz4Iqr7Op0qweMpyO-917" value="Delete&amp;nbsp;&lt;br&gt;Paket" style="strokeWidth=2;html=1;shape=mxgraph.flowchart.decision;whiteSpace=wrap;" parent="rQRDz4Iqr7Op0qweMpyO-900" vertex="1">
          <mxGeometry x="95" y="840" width="80" height="80" as="geometry" />
        </mxCell>
        <mxCell id="rQRDz4Iqr7Op0qweMpyO-918" value="" style="edgeStyle=orthogonalEdgeStyle;rounded=0;orthogonalLoop=1;jettySize=auto;html=1;entryX=0.5;entryY=0;entryDx=0;entryDy=0;entryPerimeter=0;" parent="rQRDz4Iqr7Op0qweMpyO-900" source="rQRDz4Iqr7Op0qweMpyO-908" target="rQRDz4Iqr7Op0qweMpyO-917" edge="1">
          <mxGeometry relative="1" as="geometry" />
        </mxCell>
        <mxCell id="rQRDz4Iqr7Op0qweMpyO-919" value="Tidak" style="edgeLabel;html=1;align=center;verticalAlign=middle;resizable=0;points=[];" parent="rQRDz4Iqr7Op0qweMpyO-918" vertex="1" connectable="0">
          <mxGeometry x="-0.2012" y="-1" relative="1" as="geometry">
            <mxPoint x="1" y="28" as="offset" />
          </mxGeometry>
        </mxCell>
        <mxCell id="rQRDz4Iqr7Op0qweMpyO-920" value="Verifikasi" style="rhombus;whiteSpace=wrap;html=1;" parent="rQRDz4Iqr7Op0qweMpyO-900" vertex="1">
          <mxGeometry x="20" y="940" width="80" height="80" as="geometry" />
        </mxCell>
        <mxCell id="rQRDz4Iqr7Op0qweMpyO-921" value="Tampil Sukses Alert" style="rounded=1;whiteSpace=wrap;html=1;arcSize=40;fontColor=#000000;fillColor=#FFFFFF;strokeColor=#000000;" parent="rQRDz4Iqr7Op0qweMpyO-900" vertex="1">
          <mxGeometry x="20" y="1050" width="80" height="40" as="geometry" />
        </mxCell>
        <mxCell id="rQRDz4Iqr7Op0qweMpyO-922" value="" style="edgeStyle=orthogonalEdgeStyle;rounded=0;orthogonalLoop=1;jettySize=auto;html=1;" parent="rQRDz4Iqr7Op0qweMpyO-900" source="rQRDz4Iqr7Op0qweMpyO-920" target="rQRDz4Iqr7Op0qweMpyO-921" edge="1">
          <mxGeometry relative="1" as="geometry" />
        </mxCell>
        <mxCell id="rQRDz4Iqr7Op0qweMpyO-923" value="Ya" style="edgeLabel;html=1;align=center;verticalAlign=middle;resizable=0;points=[];" parent="rQRDz4Iqr7Op0qweMpyO-922" vertex="1" connectable="0">
          <mxGeometry x="0.591" relative="1" as="geometry">
            <mxPoint y="-9" as="offset" />
          </mxGeometry>
        </mxCell>
        <mxCell id="rQRDz4Iqr7Op0qweMpyO-924" style="edgeStyle=orthogonalEdgeStyle;rounded=0;orthogonalLoop=1;jettySize=auto;html=1;entryX=0;entryY=0.5;entryDx=0;entryDy=0;exitX=1;exitY=0.5;exitDx=0;exitDy=0;" parent="1" target="rQRDz4Iqr7Op0qweMpyO-904" edge="1">
          <mxGeometry relative="1" as="geometry">
            <mxPoint x="800" y="240" as="sourcePoint" />
            <mxPoint x="960" y="230" as="targetPoint" />
          </mxGeometry>
        </mxCell>
        <mxCell id="rQRDz4Iqr7Op0qweMpyO-925" style="edgeStyle=orthogonalEdgeStyle;rounded=0;orthogonalLoop=1;jettySize=auto;html=1;entryX=0.5;entryY=0;entryDx=0;entryDy=0;exitX=0;exitY=0.5;exitDx=0;exitDy=0;" parent="1" edge="1">
          <mxGeometry relative="1" as="geometry">
            <mxPoint x="975" y="320" as="sourcePoint" />
            <mxPoint x="760" y="360" as="targetPoint" />
            <Array as="points">
              <mxPoint x="960" y="320" />
              <mxPoint x="760" y="320" />
            </Array>
          </mxGeometry>
        </mxCell>
        <mxCell id="rQRDz4Iqr7Op0qweMpyO-926" value="Package Management" style="text;html=1;align=center;verticalAlign=middle;resizable=0;points=[];autosize=1;strokeColor=none;fillColor=none;" parent="1" vertex="1">
          <mxGeometry x="810" y="80" width="140" height="30" as="geometry" />
        </mxCell>
        <mxCell id="rQRDz4Iqr7Op0qweMpyO-927" style="edgeStyle=orthogonalEdgeStyle;rounded=0;orthogonalLoop=1;jettySize=auto;html=1;entryX=0;entryY=0.5;entryDx=0;entryDy=0;" parent="1" edge="1">
          <mxGeometry relative="1" as="geometry">
            <mxPoint x="800" y="380" as="sourcePoint" />
            <mxPoint x="975" y="380" as="targetPoint" />
          </mxGeometry>
        </mxCell>
        <mxCell id="rQRDz4Iqr7Op0qweMpyO-928" value="" style="ellipse;shape=endState;fillColor=#000000;strokeColor=#000000;" parent="1" vertex="1">
          <mxGeometry x="745" y="1265.04" width="30" height="30" as="geometry" />
        </mxCell>
        <mxCell id="rQRDz4Iqr7Op0qweMpyO-929" value="" style="endArrow=classic;html=1;rounded=0;entryX=1;entryY=0.5;entryDx=0;entryDy=0;exitX=1;exitY=0.5;exitDx=0;exitDy=0;" parent="1" source="rQRDz4Iqr7Op0qweMpyO-904" target="rQRDz4Iqr7Op0qweMpyO-878" edge="1">
          <mxGeometry relative="1" as="geometry">
            <mxPoint x="1060" y="240" as="sourcePoint" />
            <mxPoint x="1190" y="322" as="targetPoint" />
            <Array as="points">
              <mxPoint x="1090" y="240" />
              <mxPoint x="1090" y="175" />
            </Array>
          </mxGeometry>
        </mxCell>
        <mxCell id="rQRDz4Iqr7Op0qweMpyO-930" value="Tidak" style="edgeLabel;resizable=0;html=1;align=center;verticalAlign=middle;" parent="rQRDz4Iqr7Op0qweMpyO-929" connectable="0" vertex="1">
          <mxGeometry relative="1" as="geometry">
            <mxPoint x="90" y="65" as="offset" />
          </mxGeometry>
        </mxCell>
        <mxCell id="rQRDz4Iqr7Op0qweMpyO-931" style="edgeStyle=orthogonalEdgeStyle;rounded=0;orthogonalLoop=1;jettySize=auto;html=1;entryX=0.5;entryY=0;entryDx=0;entryDy=0;" parent="1" source="rQRDz4Iqr7Op0qweMpyO-903" target="rQRDz4Iqr7Op0qweMpyO-884" edge="1">
          <mxGeometry relative="1" as="geometry">
            <mxPoint x="800" y="462.5" as="targetPoint" />
          </mxGeometry>
        </mxCell>
        <mxCell id="rQRDz4Iqr7Op0qweMpyO-932" value="Ya" style="edgeLabel;html=1;align=center;verticalAlign=middle;resizable=0;points=[];" parent="rQRDz4Iqr7Op0qweMpyO-931" vertex="1" connectable="0">
          <mxGeometry x="-0.9086" y="-1" relative="1" as="geometry">
            <mxPoint x="-7" y="1" as="offset" />
          </mxGeometry>
        </mxCell>
        <mxCell id="rQRDz4Iqr7Op0qweMpyO-933" value="" style="edgeStyle=orthogonalEdgeStyle;rounded=0;orthogonalLoop=1;jettySize=auto;html=1;" parent="1" target="rQRDz4Iqr7Op0qweMpyO-907" edge="1">
          <mxGeometry relative="1" as="geometry">
            <mxPoint x="800" y="567.54" as="sourcePoint" />
          </mxGeometry>
        </mxCell>
        <mxCell id="rQRDz4Iqr7Op0qweMpyO-934" value="Tidak" style="edgeStyle=orthogonalEdgeStyle;rounded=0;orthogonalLoop=1;jettySize=auto;html=1;endArrow=classic;endFill=1;strokeColor=default;endSize=6;startSize=6;jumpSize=6;entryX=1;entryY=0.5;entryDx=0;entryDy=0;" parent="1" source="rQRDz4Iqr7Op0qweMpyO-907" edge="1">
          <mxGeometry x="-0.873" relative="1" as="geometry">
            <mxPoint x="800" y="507.53999999999996" as="targetPoint" />
            <Array as="points">
              <mxPoint x="940" y="508.03999999999996" />
              <mxPoint x="800" y="508.03999999999996" />
            </Array>
            <mxPoint as="offset" />
          </mxGeometry>
        </mxCell>
        <mxCell id="rQRDz4Iqr7Op0qweMpyO-935" value="" style="edgeStyle=orthogonalEdgeStyle;rounded=0;orthogonalLoop=1;jettySize=auto;html=1;exitX=0;exitY=0.5;exitDx=0;exitDy=0;entryX=1;entryY=0.5;entryDx=0;entryDy=0;" parent="1" source="rQRDz4Iqr7Op0qweMpyO-912" target="rQRDz4Iqr7Op0qweMpyO-887" edge="1">
          <mxGeometry relative="1" as="geometry">
            <mxPoint x="900" y="645.04" as="sourcePoint" />
            <mxPoint x="800" y="645.04" as="targetPoint" />
          </mxGeometry>
        </mxCell>
        <mxCell id="rQRDz4Iqr7Op0qweMpyO-936" style="edgeStyle=orthogonalEdgeStyle;rounded=0;orthogonalLoop=1;jettySize=auto;html=1;entryX=0.5;entryY=0;entryDx=0;entryDy=0;" parent="1" target="rQRDz4Iqr7Op0qweMpyO-889" edge="1">
          <mxGeometry relative="1" as="geometry">
            <mxPoint x="970" y="730" as="sourcePoint" />
            <mxPoint x="800" y="765.54" as="targetPoint" />
          </mxGeometry>
        </mxCell>
        <mxCell id="rQRDz4Iqr7Op0qweMpyO-937" value="Ya" style="edgeLabel;html=1;align=center;verticalAlign=middle;resizable=0;points=[];" parent="rQRDz4Iqr7Op0qweMpyO-936" vertex="1" connectable="0">
          <mxGeometry x="-0.9086" y="-1" relative="1" as="geometry">
            <mxPoint x="-7" y="1" as="offset" />
          </mxGeometry>
        </mxCell>
        <mxCell id="rQRDz4Iqr7Op0qweMpyO-938" value="" style="edgeStyle=orthogonalEdgeStyle;rounded=0;orthogonalLoop=1;jettySize=auto;html=1;" parent="1" target="rQRDz4Iqr7Op0qweMpyO-915" edge="1">
          <mxGeometry relative="1" as="geometry">
            <mxPoint x="800" y="825.54" as="sourcePoint" />
          </mxGeometry>
        </mxCell>
        <mxCell id="rQRDz4Iqr7Op0qweMpyO-939" value="Tidak" style="edgeStyle=orthogonalEdgeStyle;rounded=0;orthogonalLoop=1;jettySize=auto;html=1;endArrow=classic;endFill=1;strokeColor=default;endSize=6;startSize=6;jumpSize=6;entryX=1;entryY=0.5;entryDx=0;entryDy=0;" parent="1" source="rQRDz4Iqr7Op0qweMpyO-915" edge="1">
          <mxGeometry x="-0.873" relative="1" as="geometry">
            <mxPoint x="800" y="765.54" as="targetPoint" />
            <Array as="points">
              <mxPoint x="940" y="766.04" />
              <mxPoint x="800" y="766.04" />
            </Array>
            <mxPoint as="offset" />
          </mxGeometry>
        </mxCell>
        <mxCell id="rQRDz4Iqr7Op0qweMpyO-940" value="" style="edgeStyle=orthogonalEdgeStyle;rounded=0;orthogonalLoop=1;jettySize=auto;html=1;exitX=0;exitY=0.5;exitDx=0;exitDy=0;entryX=1;entryY=0.5;entryDx=0;entryDy=0;" parent="1" source="rQRDz4Iqr7Op0qweMpyO-916" target="rQRDz4Iqr7Op0qweMpyO-891" edge="1">
          <mxGeometry relative="1" as="geometry">
            <mxPoint x="900" y="903.04" as="sourcePoint" />
            <mxPoint x="800" y="903.04" as="targetPoint" />
          </mxGeometry>
        </mxCell>
        <mxCell id="rQRDz4Iqr7Op0qweMpyO-941" value="" style="group" parent="1" vertex="1" connectable="0">
          <mxGeometry x="745" y="955.04" width="30" height="30" as="geometry" />
        </mxCell>
        <mxCell id="rQRDz4Iqr7Op0qweMpyO-942" value="" style="ellipse;whiteSpace=wrap;html=1;aspect=fixed;" parent="rQRDz4Iqr7Op0qweMpyO-941" vertex="1">
          <mxGeometry width="30" height="30" as="geometry" />
        </mxCell>
        <mxCell id="rQRDz4Iqr7Op0qweMpyO-943" value="" style="endArrow=none;html=1;rounded=0;exitX=0;exitY=1;exitDx=0;exitDy=0;entryX=1;entryY=0;entryDx=0;entryDy=0;" parent="rQRDz4Iqr7Op0qweMpyO-941" source="rQRDz4Iqr7Op0qweMpyO-942" target="rQRDz4Iqr7Op0qweMpyO-942" edge="1">
          <mxGeometry width="50" height="50" relative="1" as="geometry">
            <mxPoint x="20" y="60" as="sourcePoint" />
            <mxPoint x="70" y="10" as="targetPoint" />
          </mxGeometry>
        </mxCell>
        <mxCell id="rQRDz4Iqr7Op0qweMpyO-944" value="" style="endArrow=none;html=1;rounded=0;exitX=0;exitY=0;exitDx=0;exitDy=0;entryX=1;entryY=1;entryDx=0;entryDy=0;" parent="rQRDz4Iqr7Op0qweMpyO-941" source="rQRDz4Iqr7Op0qweMpyO-942" target="rQRDz4Iqr7Op0qweMpyO-942" edge="1">
          <mxGeometry width="50" height="50" relative="1" as="geometry">
            <mxPoint x="22" y="78" as="sourcePoint" />
            <mxPoint x="78" y="22" as="targetPoint" />
          </mxGeometry>
        </mxCell>
        <mxCell id="rQRDz4Iqr7Op0qweMpyO-945" value="" style="edgeStyle=orthogonalEdgeStyle;rounded=0;orthogonalLoop=1;jettySize=auto;html=1;" parent="1" source="rQRDz4Iqr7Op0qweMpyO-891" target="rQRDz4Iqr7Op0qweMpyO-942" edge="1">
          <mxGeometry relative="1" as="geometry" />
        </mxCell>
        <mxCell id="rQRDz4Iqr7Op0qweMpyO-946" style="edgeStyle=orthogonalEdgeStyle;rounded=0;orthogonalLoop=1;jettySize=auto;html=1;entryX=0.5;entryY=0;entryDx=0;entryDy=0;" parent="1" source="rQRDz4Iqr7Op0qweMpyO-917" target="rQRDz4Iqr7Op0qweMpyO-897" edge="1">
          <mxGeometry relative="1" as="geometry" />
        </mxCell>
        <mxCell id="rQRDz4Iqr7Op0qweMpyO-947" value="Ya" style="edgeLabel;html=1;align=center;verticalAlign=middle;resizable=0;points=[];" parent="rQRDz4Iqr7Op0qweMpyO-946" vertex="1" connectable="0">
          <mxGeometry x="-0.8086" y="1" relative="1" as="geometry">
            <mxPoint x="2" y="-1" as="offset" />
          </mxGeometry>
        </mxCell>
        <mxCell id="rQRDz4Iqr7Op0qweMpyO-948" value="" style="edgeStyle=orthogonalEdgeStyle;rounded=0;orthogonalLoop=1;jettySize=auto;html=1;entryX=1;entryY=0.5;entryDx=0;entryDy=0;" parent="1" source="rQRDz4Iqr7Op0qweMpyO-917" target="rQRDz4Iqr7Op0qweMpyO-896" edge="1">
          <mxGeometry relative="1" as="geometry">
            <mxPoint x="800" y="1225.04" as="targetPoint" />
            <Array as="points">
              <mxPoint x="1015" y="1230" />
            </Array>
          </mxGeometry>
        </mxCell>
        <mxCell id="rQRDz4Iqr7Op0qweMpyO-949" value="Tidak" style="edgeLabel;html=1;align=center;verticalAlign=middle;resizable=0;points=[];" parent="rQRDz4Iqr7Op0qweMpyO-948" vertex="1" connectable="0">
          <mxGeometry x="-0.1961" y="2" relative="1" as="geometry">
            <mxPoint x="-2" y="-71" as="offset" />
          </mxGeometry>
        </mxCell>
        <mxCell id="rQRDz4Iqr7Op0qweMpyO-950" value="" style="edgeStyle=orthogonalEdgeStyle;rounded=0;orthogonalLoop=1;jettySize=auto;html=1;exitX=1;exitY=0.5;exitDx=0;exitDy=0;" parent="1" source="rQRDz4Iqr7Op0qweMpyO-898" target="rQRDz4Iqr7Op0qweMpyO-920" edge="1">
          <mxGeometry relative="1" as="geometry">
            <mxPoint x="800" y="1105.04" as="sourcePoint" />
          </mxGeometry>
        </mxCell>
        <mxCell id="rQRDz4Iqr7Op0qweMpyO-951" value="" style="edgeStyle=orthogonalEdgeStyle;rounded=0;orthogonalLoop=1;jettySize=auto;html=1;exitX=0;exitY=0.5;exitDx=0;exitDy=0;entryX=0.5;entryY=0;entryDx=0;entryDy=0;" parent="1" source="rQRDz4Iqr7Op0qweMpyO-921" target="rQRDz4Iqr7Op0qweMpyO-896" edge="1">
          <mxGeometry relative="1" as="geometry">
            <mxPoint x="900" y="1182.54" as="sourcePoint" />
            <mxPoint x="800" y="1182.54" as="targetPoint" />
          </mxGeometry>
        </mxCell>
        <mxCell id="rQRDz4Iqr7Op0qweMpyO-952" value="Tidak" style="edgeStyle=orthogonalEdgeStyle;rounded=0;orthogonalLoop=1;jettySize=auto;html=1;endArrow=classic;endFill=1;strokeColor=default;endSize=6;startSize=6;jumpSize=6;entryX=1;entryY=0.5;entryDx=0;entryDy=0;exitX=0.507;exitY=-0.029;exitDx=0;exitDy=0;exitPerimeter=0;" parent="1" source="rQRDz4Iqr7Op0qweMpyO-920" target="rQRDz4Iqr7Op0qweMpyO-897" edge="1">
          <mxGeometry x="-0.873" relative="1" as="geometry">
            <mxPoint x="800" y="1025.04" as="targetPoint" />
            <mxPoint x="940" y="1045.54" as="sourcePoint" />
            <Array as="points">
              <mxPoint x="941" y="1040" />
            </Array>
            <mxPoint as="offset" />
          </mxGeometry>
        </mxCell>
        <mxCell id="rQRDz4Iqr7Op0qweMpyO-953" value="" style="edgeStyle=orthogonalEdgeStyle;rounded=0;orthogonalLoop=1;jettySize=auto;html=1;" parent="1" source="rQRDz4Iqr7Op0qweMpyO-896" target="rQRDz4Iqr7Op0qweMpyO-928" edge="1">
          <mxGeometry relative="1" as="geometry" />
        </mxCell>
        <mxCell id="rQRDz4Iqr7Op0qweMpyO-954" value="Admin" style="swimlane;whiteSpace=wrap" parent="1" vertex="1">
          <mxGeometry x="40" y="120" width="240" height="1180" as="geometry" />
        </mxCell>
        <mxCell id="rQRDz4Iqr7Op0qweMpyO-955" value="" style="ellipse;shape=startState;fillColor=#000000;strokeColor=#000000;" parent="rQRDz4Iqr7Op0qweMpyO-954" vertex="1">
          <mxGeometry x="105" y="40" width="30" height="30" as="geometry" />
        </mxCell>
        <mxCell id="rQRDz4Iqr7Op0qweMpyO-956" value="" style="edgeStyle=elbowEdgeStyle;elbow=horizontal;verticalAlign=bottom;endArrow=open;endSize=8;strokeColor=#000000;endFill=1;rounded=0;entryX=0.5;entryY=0;entryDx=0;entryDy=0;entryPerimeter=0;" parent="rQRDz4Iqr7Op0qweMpyO-954" edge="1">
          <mxGeometry x="100" y="40" as="geometry">
            <mxPoint x="115" y="100" as="targetPoint" />
            <mxPoint x="114.71428571428578" y="100" as="sourcePoint" />
          </mxGeometry>
        </mxCell>
        <mxCell id="rQRDz4Iqr7Op0qweMpyO-957" value="" style="edgeStyle=elbowEdgeStyle;elbow=horizontal;verticalAlign=bottom;endArrow=open;endSize=8;strokeColor=#000000;endFill=1;rounded=0;entryX=0.5;entryY=0;entryDx=0;entryDy=0;entryPerimeter=0;" parent="rQRDz4Iqr7Op0qweMpyO-954" source="rQRDz4Iqr7Op0qweMpyO-955" edge="1">
          <mxGeometry x="100" y="40" as="geometry">
            <mxPoint x="120" y="100" as="targetPoint" />
            <mxPoint x="155" y="190" as="sourcePoint" />
          </mxGeometry>
        </mxCell>
        <mxCell id="rQRDz4Iqr7Op0qweMpyO-958" value="Login" style="rounded=1;whiteSpace=wrap;html=1;arcSize=40;fontColor=#000000;fillColor=#FFFFFF;strokeColor=#000000;" parent="rQRDz4Iqr7Op0qweMpyO-954" vertex="1">
          <mxGeometry x="80" y="100" width="80" height="40" as="geometry" />
        </mxCell>
        <mxCell id="rQRDz4Iqr7Op0qweMpyO-959" value="Pilih Menu User" style="rounded=1;whiteSpace=wrap;html=1;arcSize=40;fontColor=#000000;fillColor=#FFFFFF;strokeColor=#000000;" parent="rQRDz4Iqr7Op0qweMpyO-954" vertex="1">
          <mxGeometry x="80" y="240" width="80" height="40" as="geometry" />
        </mxCell>
        <mxCell id="rQRDz4Iqr7Op0qweMpyO-960" value="" style="edgeStyle=orthogonalEdgeStyle;rounded=0;orthogonalLoop=1;jettySize=auto;html=1;" parent="rQRDz4Iqr7Op0qweMpyO-954" source="rQRDz4Iqr7Op0qweMpyO-961" target="rQRDz4Iqr7Op0qweMpyO-962" edge="1">
          <mxGeometry relative="1" as="geometry" />
        </mxCell>
        <mxCell id="rQRDz4Iqr7Op0qweMpyO-961" value="Input Data User" style="rounded=1;whiteSpace=wrap;html=1;arcSize=40;fontColor=#000000;fillColor=#FFFFFF;strokeColor=#000000;" parent="rQRDz4Iqr7Op0qweMpyO-954" vertex="1">
          <mxGeometry x="80" y="365.03999999999996" width="80" height="40" as="geometry" />
        </mxCell>
        <mxCell id="rQRDz4Iqr7Op0qweMpyO-962" value="Submit" style="rounded=1;whiteSpace=wrap;html=1;arcSize=40;fontColor=#000000;fillColor=#FFFFFF;strokeColor=#000000;" parent="rQRDz4Iqr7Op0qweMpyO-954" vertex="1">
          <mxGeometry x="80" y="435.03999999999996" width="80" height="40" as="geometry" />
        </mxCell>
        <mxCell id="rQRDz4Iqr7Op0qweMpyO-963" value="" style="edgeStyle=orthogonalEdgeStyle;rounded=0;orthogonalLoop=1;jettySize=auto;html=1;" parent="rQRDz4Iqr7Op0qweMpyO-954" source="rQRDz4Iqr7Op0qweMpyO-964" target="rQRDz4Iqr7Op0qweMpyO-970" edge="1">
          <mxGeometry relative="1" as="geometry" />
        </mxCell>
        <mxCell id="rQRDz4Iqr7Op0qweMpyO-964" value="Lihat Data User" style="rounded=1;whiteSpace=wrap;html=1;arcSize=40;fontColor=#000000;fillColor=#FFFFFF;strokeColor=#000000;" parent="rQRDz4Iqr7Op0qweMpyO-954" vertex="1">
          <mxGeometry x="80" y="515.04" width="80" height="40" as="geometry" />
        </mxCell>
        <mxCell id="rQRDz4Iqr7Op0qweMpyO-965" value="" style="edgeStyle=orthogonalEdgeStyle;rounded=0;orthogonalLoop=1;jettySize=auto;html=1;" parent="rQRDz4Iqr7Op0qweMpyO-954" source="rQRDz4Iqr7Op0qweMpyO-966" target="rQRDz4Iqr7Op0qweMpyO-967" edge="1">
          <mxGeometry relative="1" as="geometry" />
        </mxCell>
        <mxCell id="rQRDz4Iqr7Op0qweMpyO-966" value="Edit Data User" style="rounded=1;whiteSpace=wrap;html=1;arcSize=40;fontColor=#000000;fillColor=#FFFFFF;strokeColor=#000000;" parent="rQRDz4Iqr7Op0qweMpyO-954" vertex="1">
          <mxGeometry x="80" y="630" width="80" height="40" as="geometry" />
        </mxCell>
        <mxCell id="rQRDz4Iqr7Op0qweMpyO-967" value="Submit" style="rounded=1;whiteSpace=wrap;html=1;arcSize=40;fontColor=#000000;fillColor=#FFFFFF;strokeColor=#000000;" parent="rQRDz4Iqr7Op0qweMpyO-954" vertex="1">
          <mxGeometry x="80" y="693.04" width="80" height="40" as="geometry" />
        </mxCell>
        <mxCell id="rQRDz4Iqr7Op0qweMpyO-968" value="Lihat Data User" style="rounded=1;whiteSpace=wrap;html=1;arcSize=40;fontColor=#000000;fillColor=#FFFFFF;strokeColor=#000000;" parent="rQRDz4Iqr7Op0qweMpyO-954" vertex="1">
          <mxGeometry x="80" y="773.04" width="80" height="40" as="geometry" />
        </mxCell>
        <mxCell id="rQRDz4Iqr7Op0qweMpyO-969" value="" style="group" parent="rQRDz4Iqr7Op0qweMpyO-954" vertex="1" connectable="0">
          <mxGeometry x="105" y="570" width="30" height="30" as="geometry" />
        </mxCell>
        <mxCell id="rQRDz4Iqr7Op0qweMpyO-970" value="" style="ellipse;whiteSpace=wrap;html=1;aspect=fixed;" parent="rQRDz4Iqr7Op0qweMpyO-969" vertex="1">
          <mxGeometry width="30" height="30" as="geometry" />
        </mxCell>
        <mxCell id="rQRDz4Iqr7Op0qweMpyO-971" value="" style="endArrow=none;html=1;rounded=0;exitX=0;exitY=1;exitDx=0;exitDy=0;entryX=1;entryY=0;entryDx=0;entryDy=0;" parent="rQRDz4Iqr7Op0qweMpyO-969" source="rQRDz4Iqr7Op0qweMpyO-970" target="rQRDz4Iqr7Op0qweMpyO-970" edge="1">
          <mxGeometry width="50" height="50" relative="1" as="geometry">
            <mxPoint x="20" y="60" as="sourcePoint" />
            <mxPoint x="70" y="10" as="targetPoint" />
          </mxGeometry>
        </mxCell>
        <mxCell id="rQRDz4Iqr7Op0qweMpyO-972" value="" style="endArrow=none;html=1;rounded=0;exitX=0;exitY=0;exitDx=0;exitDy=0;entryX=1;entryY=1;entryDx=0;entryDy=0;" parent="rQRDz4Iqr7Op0qweMpyO-969" source="rQRDz4Iqr7Op0qweMpyO-970" target="rQRDz4Iqr7Op0qweMpyO-970" edge="1">
          <mxGeometry width="50" height="50" relative="1" as="geometry">
            <mxPoint x="22" y="78" as="sourcePoint" />
            <mxPoint x="78" y="22" as="targetPoint" />
          </mxGeometry>
        </mxCell>
        <mxCell id="rQRDz4Iqr7Op0qweMpyO-973" value="Lihat Data User" style="rounded=1;whiteSpace=wrap;html=1;arcSize=40;fontColor=#000000;fillColor=#FFFFFF;strokeColor=#000000;" parent="rQRDz4Iqr7Op0qweMpyO-954" vertex="1">
          <mxGeometry x="80" y="1090" width="80" height="40" as="geometry" />
        </mxCell>
        <mxCell id="rQRDz4Iqr7Op0qweMpyO-974" value="Pilih Data&amp;nbsp;User" style="rounded=1;whiteSpace=wrap;html=1;arcSize=40;fontColor=#000000;fillColor=#FFFFFF;strokeColor=#000000;" parent="rQRDz4Iqr7Op0qweMpyO-954" vertex="1">
          <mxGeometry x="80" y="900" width="80" height="40" as="geometry" />
        </mxCell>
        <mxCell id="rQRDz4Iqr7Op0qweMpyO-975" value="Hapus Data&amp;nbsp;User" style="rounded=1;whiteSpace=wrap;html=1;arcSize=40;fontColor=#000000;fillColor=#FFFFFF;strokeColor=#000000;" parent="rQRDz4Iqr7Op0qweMpyO-954" vertex="1">
          <mxGeometry x="80" y="960" width="80" height="40" as="geometry" />
        </mxCell>
        <mxCell id="rQRDz4Iqr7Op0qweMpyO-976" value="" style="edgeStyle=orthogonalEdgeStyle;rounded=0;orthogonalLoop=1;jettySize=auto;html=1;" parent="rQRDz4Iqr7Op0qweMpyO-954" source="rQRDz4Iqr7Op0qweMpyO-974" target="rQRDz4Iqr7Op0qweMpyO-975" edge="1">
          <mxGeometry relative="1" as="geometry" />
        </mxCell>
        <mxCell id="rQRDz4Iqr7Op0qweMpyO-977" value="Sistem" style="swimlane;whiteSpace=wrap;startSize=23;" parent="1" vertex="1">
          <mxGeometry x="280" y="120" width="240" height="1180" as="geometry" />
        </mxCell>
        <mxCell id="rQRDz4Iqr7Op0qweMpyO-978" value="Ya" style="edgeStyle=orthogonalEdgeStyle;rounded=0;orthogonalLoop=1;jettySize=auto;html=1;entryX=0.5;entryY=0;entryDx=0;entryDy=0;exitX=0.5;exitY=1;exitDx=0;exitDy=0;" parent="rQRDz4Iqr7Op0qweMpyO-977" source="rQRDz4Iqr7Op0qweMpyO-981" edge="1">
          <mxGeometry x="-0.3333" relative="1" as="geometry">
            <mxPoint x="135" y="180" as="targetPoint" />
            <mxPoint as="offset" />
            <mxPoint x="129.9999999999999" y="155" as="sourcePoint" />
          </mxGeometry>
        </mxCell>
        <mxCell id="rQRDz4Iqr7Op0qweMpyO-979" value="Tidak" style="edgeStyle=orthogonalEdgeStyle;rounded=0;orthogonalLoop=1;jettySize=auto;html=1;entryX=0.5;entryY=0;entryDx=0;entryDy=0;entryPerimeter=0;exitX=0.5;exitY=1;exitDx=0;exitDy=0;exitPerimeter=0;" parent="rQRDz4Iqr7Op0qweMpyO-977" source="rQRDz4Iqr7Op0qweMpyO-980" target="rQRDz4Iqr7Op0qweMpyO-985" edge="1">
          <mxGeometry x="-0.0182" relative="1" as="geometry">
            <mxPoint x="135" y="525.04" as="targetPoint" />
            <mxPoint as="offset" />
            <mxPoint x="135" y="427.5400000000001" as="sourcePoint" />
          </mxGeometry>
        </mxCell>
        <mxCell id="rQRDz4Iqr7Op0qweMpyO-980" value="Tambah &lt;br&gt;User" style="strokeWidth=2;html=1;shape=mxgraph.flowchart.decision;whiteSpace=wrap;" parent="rQRDz4Iqr7Op0qweMpyO-977" vertex="1">
          <mxGeometry x="95" y="302.5" width="80" height="80" as="geometry" />
        </mxCell>
        <mxCell id="rQRDz4Iqr7Op0qweMpyO-981" value="Verifikasi" style="rhombus;whiteSpace=wrap;html=1;" parent="rQRDz4Iqr7Op0qweMpyO-977" vertex="1">
          <mxGeometry x="95" y="80" width="80" height="80" as="geometry" />
        </mxCell>
        <mxCell id="rQRDz4Iqr7Op0qweMpyO-982" value="" style="edgeStyle=orthogonalEdgeStyle;rounded=0;orthogonalLoop=1;jettySize=auto;html=1;" parent="rQRDz4Iqr7Op0qweMpyO-977" source="rQRDz4Iqr7Op0qweMpyO-984" target="rQRDz4Iqr7Op0qweMpyO-989" edge="1">
          <mxGeometry relative="1" as="geometry" />
        </mxCell>
        <mxCell id="rQRDz4Iqr7Op0qweMpyO-983" value="Ya" style="edgeLabel;html=1;align=center;verticalAlign=middle;resizable=0;points=[];" parent="rQRDz4Iqr7Op0qweMpyO-982" vertex="1" connectable="0">
          <mxGeometry x="0.591" relative="1" as="geometry">
            <mxPoint y="-9" as="offset" />
          </mxGeometry>
        </mxCell>
        <mxCell id="rQRDz4Iqr7Op0qweMpyO-984" value="Validasi" style="rhombus;whiteSpace=wrap;html=1;" parent="rQRDz4Iqr7Op0qweMpyO-977" vertex="1">
          <mxGeometry x="20" y="407.53999999999996" width="80" height="80" as="geometry" />
        </mxCell>
        <mxCell id="rQRDz4Iqr7Op0qweMpyO-985" value="Edit&amp;nbsp;User" style="strokeWidth=2;html=1;shape=mxgraph.flowchart.decision;whiteSpace=wrap;" parent="rQRDz4Iqr7Op0qweMpyO-977" vertex="1">
          <mxGeometry x="95" y="570" width="80" height="80" as="geometry" />
        </mxCell>
        <mxCell id="rQRDz4Iqr7Op0qweMpyO-986" value="Tampil Dashboard" style="rounded=1;whiteSpace=wrap;html=1;arcSize=40;fontColor=#000000;fillColor=#FFFFFF;strokeColor=#000000;" parent="rQRDz4Iqr7Op0qweMpyO-977" vertex="1">
          <mxGeometry x="95" y="180" width="80" height="40" as="geometry" />
        </mxCell>
        <mxCell id="rQRDz4Iqr7Op0qweMpyO-987" value="" style="edgeStyle=orthogonalEdgeStyle;rounded=0;orthogonalLoop=1;jettySize=auto;html=1;" parent="rQRDz4Iqr7Op0qweMpyO-977" source="rQRDz4Iqr7Op0qweMpyO-988" target="rQRDz4Iqr7Op0qweMpyO-980" edge="1">
          <mxGeometry relative="1" as="geometry" />
        </mxCell>
        <mxCell id="rQRDz4Iqr7Op0qweMpyO-988" value="Tampil Data&amp;nbsp;User" style="rounded=1;whiteSpace=wrap;html=1;arcSize=40;fontColor=#000000;fillColor=#FFFFFF;strokeColor=#000000;" parent="rQRDz4Iqr7Op0qweMpyO-977" vertex="1">
          <mxGeometry x="95" y="240" width="80" height="40" as="geometry" />
        </mxCell>
        <mxCell id="rQRDz4Iqr7Op0qweMpyO-989" value="Tampil Sukses Alert" style="rounded=1;whiteSpace=wrap;html=1;arcSize=40;fontColor=#000000;fillColor=#FFFFFF;strokeColor=#000000;" parent="rQRDz4Iqr7Op0qweMpyO-977" vertex="1">
          <mxGeometry x="20" y="515.04" width="80" height="40" as="geometry" />
        </mxCell>
        <mxCell id="rQRDz4Iqr7Op0qweMpyO-990" value="" style="edgeStyle=orthogonalEdgeStyle;rounded=0;orthogonalLoop=1;jettySize=auto;html=1;" parent="rQRDz4Iqr7Op0qweMpyO-977" source="rQRDz4Iqr7Op0qweMpyO-992" target="rQRDz4Iqr7Op0qweMpyO-993" edge="1">
          <mxGeometry relative="1" as="geometry" />
        </mxCell>
        <mxCell id="rQRDz4Iqr7Op0qweMpyO-991" value="Ya" style="edgeLabel;html=1;align=center;verticalAlign=middle;resizable=0;points=[];" parent="rQRDz4Iqr7Op0qweMpyO-990" vertex="1" connectable="0">
          <mxGeometry x="0.591" relative="1" as="geometry">
            <mxPoint y="-9" as="offset" />
          </mxGeometry>
        </mxCell>
        <mxCell id="rQRDz4Iqr7Op0qweMpyO-992" value="Validasi" style="rhombus;whiteSpace=wrap;html=1;" parent="rQRDz4Iqr7Op0qweMpyO-977" vertex="1">
          <mxGeometry x="20" y="665.54" width="80" height="80" as="geometry" />
        </mxCell>
        <mxCell id="rQRDz4Iqr7Op0qweMpyO-993" value="Tampil Sukses Alert" style="rounded=1;whiteSpace=wrap;html=1;arcSize=40;fontColor=#000000;fillColor=#FFFFFF;strokeColor=#000000;" parent="rQRDz4Iqr7Op0qweMpyO-977" vertex="1">
          <mxGeometry x="20" y="773.04" width="80" height="40" as="geometry" />
        </mxCell>
        <mxCell id="rQRDz4Iqr7Op0qweMpyO-994" value="Delete&amp;nbsp;&lt;br&gt;User" style="strokeWidth=2;html=1;shape=mxgraph.flowchart.decision;whiteSpace=wrap;" parent="rQRDz4Iqr7Op0qweMpyO-977" vertex="1">
          <mxGeometry x="95" y="840" width="80" height="80" as="geometry" />
        </mxCell>
        <mxCell id="rQRDz4Iqr7Op0qweMpyO-995" value="" style="edgeStyle=orthogonalEdgeStyle;rounded=0;orthogonalLoop=1;jettySize=auto;html=1;entryX=0.5;entryY=0;entryDx=0;entryDy=0;entryPerimeter=0;" parent="rQRDz4Iqr7Op0qweMpyO-977" source="rQRDz4Iqr7Op0qweMpyO-985" target="rQRDz4Iqr7Op0qweMpyO-994" edge="1">
          <mxGeometry relative="1" as="geometry" />
        </mxCell>
        <mxCell id="rQRDz4Iqr7Op0qweMpyO-996" value="Tidak" style="edgeLabel;html=1;align=center;verticalAlign=middle;resizable=0;points=[];" parent="rQRDz4Iqr7Op0qweMpyO-995" vertex="1" connectable="0">
          <mxGeometry x="-0.2012" y="-1" relative="1" as="geometry">
            <mxPoint x="1" y="28" as="offset" />
          </mxGeometry>
        </mxCell>
        <mxCell id="rQRDz4Iqr7Op0qweMpyO-997" value="Verifikasi" style="rhombus;whiteSpace=wrap;html=1;" parent="rQRDz4Iqr7Op0qweMpyO-977" vertex="1">
          <mxGeometry x="20" y="940" width="80" height="80" as="geometry" />
        </mxCell>
        <mxCell id="rQRDz4Iqr7Op0qweMpyO-998" value="Tampil Sukses Alert" style="rounded=1;whiteSpace=wrap;html=1;arcSize=40;fontColor=#000000;fillColor=#FFFFFF;strokeColor=#000000;" parent="rQRDz4Iqr7Op0qweMpyO-977" vertex="1">
          <mxGeometry x="20" y="1050" width="80" height="40" as="geometry" />
        </mxCell>
        <mxCell id="rQRDz4Iqr7Op0qweMpyO-999" value="" style="edgeStyle=orthogonalEdgeStyle;rounded=0;orthogonalLoop=1;jettySize=auto;html=1;" parent="rQRDz4Iqr7Op0qweMpyO-977" source="rQRDz4Iqr7Op0qweMpyO-997" target="rQRDz4Iqr7Op0qweMpyO-998" edge="1">
          <mxGeometry relative="1" as="geometry" />
        </mxCell>
        <mxCell id="rQRDz4Iqr7Op0qweMpyO-1000" value="Ya" style="edgeLabel;html=1;align=center;verticalAlign=middle;resizable=0;points=[];" parent="rQRDz4Iqr7Op0qweMpyO-999" vertex="1" connectable="0">
          <mxGeometry x="0.591" relative="1" as="geometry">
            <mxPoint y="-9" as="offset" />
          </mxGeometry>
        </mxCell>
        <mxCell id="rQRDz4Iqr7Op0qweMpyO-1001" style="edgeStyle=orthogonalEdgeStyle;rounded=0;orthogonalLoop=1;jettySize=auto;html=1;entryX=0;entryY=0.5;entryDx=0;entryDy=0;exitX=1;exitY=0.5;exitDx=0;exitDy=0;" parent="1" target="rQRDz4Iqr7Op0qweMpyO-981" edge="1">
          <mxGeometry relative="1" as="geometry">
            <mxPoint x="200" y="240" as="sourcePoint" />
            <mxPoint x="360" y="230" as="targetPoint" />
          </mxGeometry>
        </mxCell>
        <mxCell id="rQRDz4Iqr7Op0qweMpyO-1002" style="edgeStyle=orthogonalEdgeStyle;rounded=0;orthogonalLoop=1;jettySize=auto;html=1;entryX=0.5;entryY=0;entryDx=0;entryDy=0;exitX=0;exitY=0.5;exitDx=0;exitDy=0;" parent="1" edge="1">
          <mxGeometry relative="1" as="geometry">
            <mxPoint x="375" y="320" as="sourcePoint" />
            <mxPoint x="160" y="360" as="targetPoint" />
            <Array as="points">
              <mxPoint x="360" y="320" />
              <mxPoint x="160" y="320" />
            </Array>
          </mxGeometry>
        </mxCell>
        <mxCell id="rQRDz4Iqr7Op0qweMpyO-1003" value="User Management" style="text;html=1;align=center;verticalAlign=middle;resizable=0;points=[];autosize=1;strokeColor=none;fillColor=none;" parent="1" vertex="1">
          <mxGeometry x="220" y="80" width="120" height="30" as="geometry" />
        </mxCell>
        <mxCell id="rQRDz4Iqr7Op0qweMpyO-1004" style="edgeStyle=orthogonalEdgeStyle;rounded=0;orthogonalLoop=1;jettySize=auto;html=1;entryX=0;entryY=0.5;entryDx=0;entryDy=0;" parent="1" edge="1">
          <mxGeometry relative="1" as="geometry">
            <mxPoint x="200" y="380" as="sourcePoint" />
            <mxPoint x="375" y="380" as="targetPoint" />
          </mxGeometry>
        </mxCell>
        <mxCell id="rQRDz4Iqr7Op0qweMpyO-1005" value="" style="ellipse;shape=endState;fillColor=#000000;strokeColor=#000000;" parent="1" vertex="1">
          <mxGeometry x="145" y="1265.04" width="30" height="30" as="geometry" />
        </mxCell>
        <mxCell id="rQRDz4Iqr7Op0qweMpyO-1006" value="" style="endArrow=classic;html=1;rounded=0;entryX=1;entryY=0.5;entryDx=0;entryDy=0;exitX=1;exitY=0.5;exitDx=0;exitDy=0;" parent="1" source="rQRDz4Iqr7Op0qweMpyO-981" target="rQRDz4Iqr7Op0qweMpyO-955" edge="1">
          <mxGeometry relative="1" as="geometry">
            <mxPoint x="460" y="240" as="sourcePoint" />
            <mxPoint x="590" y="322" as="targetPoint" />
            <Array as="points">
              <mxPoint x="490" y="240" />
              <mxPoint x="490" y="175" />
            </Array>
          </mxGeometry>
        </mxCell>
        <mxCell id="rQRDz4Iqr7Op0qweMpyO-1007" value="Tidak" style="edgeLabel;resizable=0;html=1;align=center;verticalAlign=middle;" parent="rQRDz4Iqr7Op0qweMpyO-1006" connectable="0" vertex="1">
          <mxGeometry relative="1" as="geometry">
            <mxPoint x="90" y="65" as="offset" />
          </mxGeometry>
        </mxCell>
        <mxCell id="rQRDz4Iqr7Op0qweMpyO-1008" style="edgeStyle=orthogonalEdgeStyle;rounded=0;orthogonalLoop=1;jettySize=auto;html=1;entryX=0.5;entryY=0;entryDx=0;entryDy=0;" parent="1" source="rQRDz4Iqr7Op0qweMpyO-980" target="rQRDz4Iqr7Op0qweMpyO-961" edge="1">
          <mxGeometry relative="1" as="geometry">
            <mxPoint x="200" y="462.5" as="targetPoint" />
          </mxGeometry>
        </mxCell>
        <mxCell id="rQRDz4Iqr7Op0qweMpyO-1009" value="Ya" style="edgeLabel;html=1;align=center;verticalAlign=middle;resizable=0;points=[];" parent="rQRDz4Iqr7Op0qweMpyO-1008" vertex="1" connectable="0">
          <mxGeometry x="-0.9086" y="-1" relative="1" as="geometry">
            <mxPoint x="-7" y="1" as="offset" />
          </mxGeometry>
        </mxCell>
        <mxCell id="rQRDz4Iqr7Op0qweMpyO-1010" value="" style="edgeStyle=orthogonalEdgeStyle;rounded=0;orthogonalLoop=1;jettySize=auto;html=1;" parent="1" target="rQRDz4Iqr7Op0qweMpyO-984" edge="1">
          <mxGeometry relative="1" as="geometry">
            <mxPoint x="200" y="567.54" as="sourcePoint" />
          </mxGeometry>
        </mxCell>
        <mxCell id="rQRDz4Iqr7Op0qweMpyO-1011" value="Tidak" style="edgeStyle=orthogonalEdgeStyle;rounded=0;orthogonalLoop=1;jettySize=auto;html=1;endArrow=classic;endFill=1;strokeColor=default;endSize=6;startSize=6;jumpSize=6;entryX=1;entryY=0.5;entryDx=0;entryDy=0;" parent="1" source="rQRDz4Iqr7Op0qweMpyO-984" edge="1">
          <mxGeometry x="-0.873" relative="1" as="geometry">
            <mxPoint x="200" y="507.53999999999996" as="targetPoint" />
            <Array as="points">
              <mxPoint x="340" y="508.03999999999996" />
              <mxPoint x="200" y="508.03999999999996" />
            </Array>
            <mxPoint as="offset" />
          </mxGeometry>
        </mxCell>
        <mxCell id="rQRDz4Iqr7Op0qweMpyO-1012" value="" style="edgeStyle=orthogonalEdgeStyle;rounded=0;orthogonalLoop=1;jettySize=auto;html=1;exitX=0;exitY=0.5;exitDx=0;exitDy=0;entryX=1;entryY=0.5;entryDx=0;entryDy=0;" parent="1" source="rQRDz4Iqr7Op0qweMpyO-989" target="rQRDz4Iqr7Op0qweMpyO-964" edge="1">
          <mxGeometry relative="1" as="geometry">
            <mxPoint x="300" y="645.04" as="sourcePoint" />
            <mxPoint x="200" y="645.04" as="targetPoint" />
          </mxGeometry>
        </mxCell>
        <mxCell id="rQRDz4Iqr7Op0qweMpyO-1013" style="edgeStyle=orthogonalEdgeStyle;rounded=0;orthogonalLoop=1;jettySize=auto;html=1;entryX=0.5;entryY=0;entryDx=0;entryDy=0;" parent="1" target="rQRDz4Iqr7Op0qweMpyO-966" edge="1">
          <mxGeometry relative="1" as="geometry">
            <mxPoint x="370" y="730" as="sourcePoint" />
            <mxPoint x="200" y="765.54" as="targetPoint" />
          </mxGeometry>
        </mxCell>
        <mxCell id="rQRDz4Iqr7Op0qweMpyO-1014" value="Ya" style="edgeLabel;html=1;align=center;verticalAlign=middle;resizable=0;points=[];" parent="rQRDz4Iqr7Op0qweMpyO-1013" vertex="1" connectable="0">
          <mxGeometry x="-0.9086" y="-1" relative="1" as="geometry">
            <mxPoint x="-7" y="1" as="offset" />
          </mxGeometry>
        </mxCell>
        <mxCell id="rQRDz4Iqr7Op0qweMpyO-1015" value="" style="edgeStyle=orthogonalEdgeStyle;rounded=0;orthogonalLoop=1;jettySize=auto;html=1;" parent="1" target="rQRDz4Iqr7Op0qweMpyO-992" edge="1">
          <mxGeometry relative="1" as="geometry">
            <mxPoint x="200" y="825.54" as="sourcePoint" />
          </mxGeometry>
        </mxCell>
        <mxCell id="rQRDz4Iqr7Op0qweMpyO-1016" value="Tidak" style="edgeStyle=orthogonalEdgeStyle;rounded=0;orthogonalLoop=1;jettySize=auto;html=1;endArrow=classic;endFill=1;strokeColor=default;endSize=6;startSize=6;jumpSize=6;entryX=1;entryY=0.5;entryDx=0;entryDy=0;" parent="1" source="rQRDz4Iqr7Op0qweMpyO-992" edge="1">
          <mxGeometry x="-0.873" relative="1" as="geometry">
            <mxPoint x="200" y="765.54" as="targetPoint" />
            <Array as="points">
              <mxPoint x="340" y="766.04" />
              <mxPoint x="200" y="766.04" />
            </Array>
            <mxPoint as="offset" />
          </mxGeometry>
        </mxCell>
        <mxCell id="rQRDz4Iqr7Op0qweMpyO-1017" value="" style="edgeStyle=orthogonalEdgeStyle;rounded=0;orthogonalLoop=1;jettySize=auto;html=1;exitX=0;exitY=0.5;exitDx=0;exitDy=0;entryX=1;entryY=0.5;entryDx=0;entryDy=0;" parent="1" source="rQRDz4Iqr7Op0qweMpyO-993" target="rQRDz4Iqr7Op0qweMpyO-968" edge="1">
          <mxGeometry relative="1" as="geometry">
            <mxPoint x="300" y="903.04" as="sourcePoint" />
            <mxPoint x="200" y="903.04" as="targetPoint" />
          </mxGeometry>
        </mxCell>
        <mxCell id="rQRDz4Iqr7Op0qweMpyO-1018" value="" style="group" parent="1" vertex="1" connectable="0">
          <mxGeometry x="145" y="955.04" width="30" height="30" as="geometry" />
        </mxCell>
        <mxCell id="rQRDz4Iqr7Op0qweMpyO-1019" value="" style="ellipse;whiteSpace=wrap;html=1;aspect=fixed;" parent="rQRDz4Iqr7Op0qweMpyO-1018" vertex="1">
          <mxGeometry width="30" height="30" as="geometry" />
        </mxCell>
        <mxCell id="rQRDz4Iqr7Op0qweMpyO-1020" value="" style="endArrow=none;html=1;rounded=0;exitX=0;exitY=1;exitDx=0;exitDy=0;entryX=1;entryY=0;entryDx=0;entryDy=0;" parent="rQRDz4Iqr7Op0qweMpyO-1018" source="rQRDz4Iqr7Op0qweMpyO-1019" target="rQRDz4Iqr7Op0qweMpyO-1019" edge="1">
          <mxGeometry width="50" height="50" relative="1" as="geometry">
            <mxPoint x="20" y="60" as="sourcePoint" />
            <mxPoint x="70" y="10" as="targetPoint" />
          </mxGeometry>
        </mxCell>
        <mxCell id="rQRDz4Iqr7Op0qweMpyO-1021" value="" style="endArrow=none;html=1;rounded=0;exitX=0;exitY=0;exitDx=0;exitDy=0;entryX=1;entryY=1;entryDx=0;entryDy=0;" parent="rQRDz4Iqr7Op0qweMpyO-1018" source="rQRDz4Iqr7Op0qweMpyO-1019" target="rQRDz4Iqr7Op0qweMpyO-1019" edge="1">
          <mxGeometry width="50" height="50" relative="1" as="geometry">
            <mxPoint x="22" y="78" as="sourcePoint" />
            <mxPoint x="78" y="22" as="targetPoint" />
          </mxGeometry>
        </mxCell>
        <mxCell id="rQRDz4Iqr7Op0qweMpyO-1022" value="" style="edgeStyle=orthogonalEdgeStyle;rounded=0;orthogonalLoop=1;jettySize=auto;html=1;" parent="1" source="rQRDz4Iqr7Op0qweMpyO-968" target="rQRDz4Iqr7Op0qweMpyO-1019" edge="1">
          <mxGeometry relative="1" as="geometry" />
        </mxCell>
        <mxCell id="rQRDz4Iqr7Op0qweMpyO-1023" style="edgeStyle=orthogonalEdgeStyle;rounded=0;orthogonalLoop=1;jettySize=auto;html=1;entryX=0.5;entryY=0;entryDx=0;entryDy=0;" parent="1" source="rQRDz4Iqr7Op0qweMpyO-994" target="rQRDz4Iqr7Op0qweMpyO-974" edge="1">
          <mxGeometry relative="1" as="geometry" />
        </mxCell>
        <mxCell id="rQRDz4Iqr7Op0qweMpyO-1024" value="Ya" style="edgeLabel;html=1;align=center;verticalAlign=middle;resizable=0;points=[];" parent="rQRDz4Iqr7Op0qweMpyO-1023" vertex="1" connectable="0">
          <mxGeometry x="-0.8086" y="1" relative="1" as="geometry">
            <mxPoint x="2" y="-1" as="offset" />
          </mxGeometry>
        </mxCell>
        <mxCell id="rQRDz4Iqr7Op0qweMpyO-1025" value="" style="edgeStyle=orthogonalEdgeStyle;rounded=0;orthogonalLoop=1;jettySize=auto;html=1;entryX=1;entryY=0.5;entryDx=0;entryDy=0;" parent="1" source="rQRDz4Iqr7Op0qweMpyO-994" target="rQRDz4Iqr7Op0qweMpyO-973" edge="1">
          <mxGeometry relative="1" as="geometry">
            <mxPoint x="200" y="1225.04" as="targetPoint" />
            <Array as="points">
              <mxPoint x="415" y="1230" />
            </Array>
          </mxGeometry>
        </mxCell>
        <mxCell id="rQRDz4Iqr7Op0qweMpyO-1026" value="Tidak" style="edgeLabel;html=1;align=center;verticalAlign=middle;resizable=0;points=[];" parent="rQRDz4Iqr7Op0qweMpyO-1025" vertex="1" connectable="0">
          <mxGeometry x="-0.1961" y="2" relative="1" as="geometry">
            <mxPoint x="-2" y="-71" as="offset" />
          </mxGeometry>
        </mxCell>
        <mxCell id="rQRDz4Iqr7Op0qweMpyO-1027" value="" style="edgeStyle=orthogonalEdgeStyle;rounded=0;orthogonalLoop=1;jettySize=auto;html=1;exitX=1;exitY=0.5;exitDx=0;exitDy=0;" parent="1" source="rQRDz4Iqr7Op0qweMpyO-975" target="rQRDz4Iqr7Op0qweMpyO-997" edge="1">
          <mxGeometry relative="1" as="geometry">
            <mxPoint x="200" y="1105.04" as="sourcePoint" />
          </mxGeometry>
        </mxCell>
        <mxCell id="rQRDz4Iqr7Op0qweMpyO-1028" value="" style="edgeStyle=orthogonalEdgeStyle;rounded=0;orthogonalLoop=1;jettySize=auto;html=1;exitX=0;exitY=0.5;exitDx=0;exitDy=0;entryX=0.5;entryY=0;entryDx=0;entryDy=0;" parent="1" source="rQRDz4Iqr7Op0qweMpyO-998" target="rQRDz4Iqr7Op0qweMpyO-973" edge="1">
          <mxGeometry relative="1" as="geometry">
            <mxPoint x="300" y="1182.54" as="sourcePoint" />
            <mxPoint x="200" y="1182.54" as="targetPoint" />
          </mxGeometry>
        </mxCell>
        <mxCell id="rQRDz4Iqr7Op0qweMpyO-1029" value="Tidak" style="edgeStyle=orthogonalEdgeStyle;rounded=0;orthogonalLoop=1;jettySize=auto;html=1;endArrow=classic;endFill=1;strokeColor=default;endSize=6;startSize=6;jumpSize=6;entryX=1;entryY=0.5;entryDx=0;entryDy=0;exitX=0.507;exitY=-0.029;exitDx=0;exitDy=0;exitPerimeter=0;" parent="1" source="rQRDz4Iqr7Op0qweMpyO-997" target="rQRDz4Iqr7Op0qweMpyO-974" edge="1">
          <mxGeometry x="-0.873" relative="1" as="geometry">
            <mxPoint x="200" y="1025.04" as="targetPoint" />
            <mxPoint x="340" y="1045.54" as="sourcePoint" />
            <Array as="points">
              <mxPoint x="341" y="1040" />
            </Array>
            <mxPoint as="offset" />
          </mxGeometry>
        </mxCell>
        <mxCell id="rQRDz4Iqr7Op0qweMpyO-1030" value="" style="edgeStyle=orthogonalEdgeStyle;rounded=0;orthogonalLoop=1;jettySize=auto;html=1;" parent="1" source="rQRDz4Iqr7Op0qweMpyO-973" target="rQRDz4Iqr7Op0qweMpyO-1005" edge="1">
          <mxGeometry relative="1" as="geometry" />
        </mxCell>
        <mxCell id="4-Plv-bzWUVsnKR8KWIE-1" value="Admin" style="swimlane;whiteSpace=wrap" vertex="1" parent="1">
          <mxGeometry x="2320" y="120" width="230" height="960" as="geometry" />
        </mxCell>
        <mxCell id="4-Plv-bzWUVsnKR8KWIE-2" value="" style="ellipse;shape=startState;fillColor=#000000;strokeColor=#000000;" vertex="1" parent="4-Plv-bzWUVsnKR8KWIE-1">
          <mxGeometry x="105" y="40" width="30" height="30" as="geometry" />
        </mxCell>
        <mxCell id="4-Plv-bzWUVsnKR8KWIE-3" value="" style="edgeStyle=elbowEdgeStyle;elbow=horizontal;verticalAlign=bottom;endArrow=open;endSize=8;strokeColor=#000000;endFill=1;rounded=0;entryX=0.5;entryY=0;entryDx=0;entryDy=0;entryPerimeter=0;" edge="1" parent="4-Plv-bzWUVsnKR8KWIE-1">
          <mxGeometry x="100" y="40" as="geometry">
            <mxPoint x="115" y="100" as="targetPoint" />
            <mxPoint x="114.71428571428578" y="100" as="sourcePoint" />
          </mxGeometry>
        </mxCell>
        <mxCell id="4-Plv-bzWUVsnKR8KWIE-4" value="" style="edgeStyle=elbowEdgeStyle;elbow=horizontal;verticalAlign=bottom;endArrow=open;endSize=8;strokeColor=#000000;endFill=1;rounded=0;entryX=0.5;entryY=0;entryDx=0;entryDy=0;entryPerimeter=0;" edge="1" parent="4-Plv-bzWUVsnKR8KWIE-1" source="4-Plv-bzWUVsnKR8KWIE-2">
          <mxGeometry x="100" y="40" as="geometry">
            <mxPoint x="120" y="100" as="targetPoint" />
            <mxPoint x="155" y="190" as="sourcePoint" />
          </mxGeometry>
        </mxCell>
        <mxCell id="4-Plv-bzWUVsnKR8KWIE-5" value="Login" style="rounded=1;whiteSpace=wrap;html=1;arcSize=40;fontColor=#000000;fillColor=#FFFFFF;strokeColor=#000000;" vertex="1" parent="4-Plv-bzWUVsnKR8KWIE-1">
          <mxGeometry x="80" y="100" width="80" height="40" as="geometry" />
        </mxCell>
        <mxCell id="4-Plv-bzWUVsnKR8KWIE-6" value="Pilih Menu Gallery" style="rounded=1;whiteSpace=wrap;html=1;arcSize=40;fontColor=#000000;fillColor=#FFFFFF;strokeColor=#000000;" vertex="1" parent="4-Plv-bzWUVsnKR8KWIE-1">
          <mxGeometry x="80" y="240" width="80" height="40" as="geometry" />
        </mxCell>
        <mxCell id="4-Plv-bzWUVsnKR8KWIE-7" value="" style="edgeStyle=orthogonalEdgeStyle;rounded=0;orthogonalLoop=1;jettySize=auto;html=1;" edge="1" parent="4-Plv-bzWUVsnKR8KWIE-1" source="4-Plv-bzWUVsnKR8KWIE-8" target="4-Plv-bzWUVsnKR8KWIE-9">
          <mxGeometry relative="1" as="geometry" />
        </mxCell>
        <mxCell id="4-Plv-bzWUVsnKR8KWIE-8" value="Input Data Gallery" style="rounded=1;whiteSpace=wrap;html=1;arcSize=40;fontColor=#000000;fillColor=#FFFFFF;strokeColor=#000000;" vertex="1" parent="4-Plv-bzWUVsnKR8KWIE-1">
          <mxGeometry x="80" y="362.5" width="80" height="40" as="geometry" />
        </mxCell>
        <mxCell id="4-Plv-bzWUVsnKR8KWIE-9" value="Submit" style="rounded=1;whiteSpace=wrap;html=1;arcSize=40;fontColor=#000000;fillColor=#FFFFFF;strokeColor=#000000;" vertex="1" parent="4-Plv-bzWUVsnKR8KWIE-1">
          <mxGeometry x="80" y="430" width="80" height="40" as="geometry" />
        </mxCell>
        <mxCell id="4-Plv-bzWUVsnKR8KWIE-10" value="Lihat Data Gallery" style="rounded=1;whiteSpace=wrap;html=1;arcSize=40;fontColor=#000000;fillColor=#FFFFFF;strokeColor=#000000;" vertex="1" parent="4-Plv-bzWUVsnKR8KWIE-1">
          <mxGeometry x="80" y="540" width="80" height="40" as="geometry" />
        </mxCell>
        <mxCell id="4-Plv-bzWUVsnKR8KWIE-12" value="" style="edgeStyle=orthogonalEdgeStyle;rounded=0;orthogonalLoop=1;jettySize=auto;html=1;" edge="1" parent="4-Plv-bzWUVsnKR8KWIE-1" source="4-Plv-bzWUVsnKR8KWIE-10">
          <mxGeometry relative="1" as="geometry">
            <mxPoint x="120" y="599.9999999999998" as="targetPoint" />
          </mxGeometry>
        </mxCell>
        <mxCell id="4-Plv-bzWUVsnKR8KWIE-45" value="" style="ellipse;shape=endState;fillColor=#000000;strokeColor=#000000;" vertex="1" parent="4-Plv-bzWUVsnKR8KWIE-1">
          <mxGeometry x="105" y="910" width="30" height="30" as="geometry" />
        </mxCell>
        <mxCell id="4-Plv-bzWUVsnKR8KWIE-13" value="Sistem" style="swimlane;whiteSpace=wrap;startSize=23;" vertex="1" parent="1">
          <mxGeometry x="2550" y="120" width="240" height="960" as="geometry" />
        </mxCell>
        <mxCell id="4-Plv-bzWUVsnKR8KWIE-14" value="Ya" style="edgeStyle=orthogonalEdgeStyle;rounded=0;orthogonalLoop=1;jettySize=auto;html=1;entryX=0.5;entryY=0;entryDx=0;entryDy=0;exitX=0.5;exitY=1;exitDx=0;exitDy=0;" edge="1" parent="4-Plv-bzWUVsnKR8KWIE-13" source="4-Plv-bzWUVsnKR8KWIE-16">
          <mxGeometry x="-0.3333" relative="1" as="geometry">
            <mxPoint x="135" y="180" as="targetPoint" />
            <mxPoint as="offset" />
            <mxPoint x="129.9999999999999" y="155" as="sourcePoint" />
          </mxGeometry>
        </mxCell>
        <mxCell id="4-Plv-bzWUVsnKR8KWIE-15" value="Tambah Gallery" style="strokeWidth=2;html=1;shape=mxgraph.flowchart.decision;whiteSpace=wrap;" vertex="1" parent="4-Plv-bzWUVsnKR8KWIE-13">
          <mxGeometry x="95" y="302.5" width="80" height="80" as="geometry" />
        </mxCell>
        <mxCell id="4-Plv-bzWUVsnKR8KWIE-16" value="Verifikasi" style="rhombus;whiteSpace=wrap;html=1;" vertex="1" parent="4-Plv-bzWUVsnKR8KWIE-13">
          <mxGeometry x="95" y="80" width="80" height="80" as="geometry" />
        </mxCell>
        <mxCell id="4-Plv-bzWUVsnKR8KWIE-17" value="Validasi" style="rhombus;whiteSpace=wrap;html=1;" vertex="1" parent="4-Plv-bzWUVsnKR8KWIE-13">
          <mxGeometry x="20" y="402.5" width="80" height="80" as="geometry" />
        </mxCell>
        <mxCell id="4-Plv-bzWUVsnKR8KWIE-18" value="Tampil Dashboard" style="rounded=1;whiteSpace=wrap;html=1;arcSize=40;fontColor=#000000;fillColor=#FFFFFF;strokeColor=#000000;" vertex="1" parent="4-Plv-bzWUVsnKR8KWIE-13">
          <mxGeometry x="95" y="180" width="80" height="40" as="geometry" />
        </mxCell>
        <mxCell id="4-Plv-bzWUVsnKR8KWIE-19" style="edgeStyle=orthogonalEdgeStyle;rounded=0;orthogonalLoop=1;jettySize=auto;html=1;entryX=0.5;entryY=0;entryDx=0;entryDy=0;entryPerimeter=0;" edge="1" parent="4-Plv-bzWUVsnKR8KWIE-13" source="4-Plv-bzWUVsnKR8KWIE-20" target="4-Plv-bzWUVsnKR8KWIE-15">
          <mxGeometry relative="1" as="geometry" />
        </mxCell>
        <mxCell id="4-Plv-bzWUVsnKR8KWIE-20" value="Tampil Data Gallery" style="rounded=1;whiteSpace=wrap;html=1;arcSize=40;fontColor=#000000;fillColor=#FFFFFF;strokeColor=#000000;" vertex="1" parent="4-Plv-bzWUVsnKR8KWIE-13">
          <mxGeometry x="95" y="240" width="80" height="40" as="geometry" />
        </mxCell>
        <mxCell id="4-Plv-bzWUVsnKR8KWIE-21" value="" style="edgeStyle=orthogonalEdgeStyle;rounded=0;orthogonalLoop=1;jettySize=auto;html=1;entryX=0.5;entryY=0;entryDx=0;entryDy=0;entryPerimeter=0;" edge="1" parent="4-Plv-bzWUVsnKR8KWIE-13" target="4-Plv-bzWUVsnKR8KWIE-40">
          <mxGeometry relative="1" as="geometry">
            <mxPoint x="135" y="382.4999999999998" as="sourcePoint" />
            <mxPoint x="-80" y="542.5" as="targetPoint" />
            <Array as="points" />
          </mxGeometry>
        </mxCell>
        <mxCell id="4-Plv-bzWUVsnKR8KWIE-22" value="Tidak" style="edgeLabel;html=1;align=center;verticalAlign=middle;resizable=0;points=[];" vertex="1" connectable="0" parent="4-Plv-bzWUVsnKR8KWIE-21">
          <mxGeometry x="-0.1961" y="2" relative="1" as="geometry">
            <mxPoint x="-2" y="-71" as="offset" />
          </mxGeometry>
        </mxCell>
        <mxCell id="4-Plv-bzWUVsnKR8KWIE-23" value="" style="edgeStyle=orthogonalEdgeStyle;rounded=0;orthogonalLoop=1;jettySize=auto;html=1;" edge="1" parent="4-Plv-bzWUVsnKR8KWIE-13" target="4-Plv-bzWUVsnKR8KWIE-24">
          <mxGeometry relative="1" as="geometry">
            <mxPoint x="60" y="482.4999999999998" as="sourcePoint" />
          </mxGeometry>
        </mxCell>
        <mxCell id="4-Plv-bzWUVsnKR8KWIE-24" value="Tampil Sukses Alert" style="rounded=1;whiteSpace=wrap;html=1;arcSize=40;fontColor=#000000;fillColor=#FFFFFF;strokeColor=#000000;" vertex="1" parent="4-Plv-bzWUVsnKR8KWIE-13">
          <mxGeometry x="20" y="500" width="80" height="40" as="geometry" />
        </mxCell>
        <mxCell id="4-Plv-bzWUVsnKR8KWIE-36" value="Lihat Data Gallery" style="rounded=1;whiteSpace=wrap;html=1;arcSize=40;fontColor=#000000;fillColor=#FFFFFF;strokeColor=#000000;" vertex="1" parent="4-Plv-bzWUVsnKR8KWIE-13">
          <mxGeometry x="-150" y="850" width="80" height="40" as="geometry" />
        </mxCell>
        <mxCell id="4-Plv-bzWUVsnKR8KWIE-37" value="Pilih Data Gallery" style="rounded=1;whiteSpace=wrap;html=1;arcSize=40;fontColor=#000000;fillColor=#FFFFFF;strokeColor=#000000;" vertex="1" parent="4-Plv-bzWUVsnKR8KWIE-13">
          <mxGeometry x="-150" y="660" width="80" height="40" as="geometry" />
        </mxCell>
        <mxCell id="4-Plv-bzWUVsnKR8KWIE-38" value="Hapus Data Gallery" style="rounded=1;whiteSpace=wrap;html=1;arcSize=40;fontColor=#000000;fillColor=#FFFFFF;strokeColor=#000000;" vertex="1" parent="4-Plv-bzWUVsnKR8KWIE-13">
          <mxGeometry x="-150" y="720" width="80" height="40" as="geometry" />
        </mxCell>
        <mxCell id="4-Plv-bzWUVsnKR8KWIE-39" value="" style="edgeStyle=orthogonalEdgeStyle;rounded=0;orthogonalLoop=1;jettySize=auto;html=1;" edge="1" parent="4-Plv-bzWUVsnKR8KWIE-13" source="4-Plv-bzWUVsnKR8KWIE-37" target="4-Plv-bzWUVsnKR8KWIE-38">
          <mxGeometry relative="1" as="geometry" />
        </mxCell>
        <mxCell id="4-Plv-bzWUVsnKR8KWIE-40" value="Delete&amp;nbsp;&lt;br&gt;Gallery" style="strokeWidth=2;html=1;shape=mxgraph.flowchart.decision;whiteSpace=wrap;" vertex="1" parent="4-Plv-bzWUVsnKR8KWIE-13">
          <mxGeometry x="95" y="600" width="80" height="80" as="geometry" />
        </mxCell>
        <mxCell id="4-Plv-bzWUVsnKR8KWIE-41" value="Verifikasi" style="rhombus;whiteSpace=wrap;html=1;" vertex="1" parent="4-Plv-bzWUVsnKR8KWIE-13">
          <mxGeometry x="30" y="700" width="80" height="80" as="geometry" />
        </mxCell>
        <mxCell id="4-Plv-bzWUVsnKR8KWIE-42" value="Tampil Sukses Alert" style="rounded=1;whiteSpace=wrap;html=1;arcSize=40;fontColor=#000000;fillColor=#FFFFFF;strokeColor=#000000;" vertex="1" parent="4-Plv-bzWUVsnKR8KWIE-13">
          <mxGeometry x="30" y="810" width="80" height="40" as="geometry" />
        </mxCell>
        <mxCell id="4-Plv-bzWUVsnKR8KWIE-43" value="" style="edgeStyle=orthogonalEdgeStyle;rounded=0;orthogonalLoop=1;jettySize=auto;html=1;" edge="1" parent="4-Plv-bzWUVsnKR8KWIE-13" source="4-Plv-bzWUVsnKR8KWIE-41" target="4-Plv-bzWUVsnKR8KWIE-42">
          <mxGeometry relative="1" as="geometry" />
        </mxCell>
        <mxCell id="4-Plv-bzWUVsnKR8KWIE-44" value="Ya" style="edgeLabel;html=1;align=center;verticalAlign=middle;resizable=0;points=[];" vertex="1" connectable="0" parent="4-Plv-bzWUVsnKR8KWIE-43">
          <mxGeometry x="0.591" relative="1" as="geometry">
            <mxPoint y="-9" as="offset" />
          </mxGeometry>
        </mxCell>
        <mxCell id="4-Plv-bzWUVsnKR8KWIE-51" style="edgeStyle=orthogonalEdgeStyle;rounded=0;orthogonalLoop=1;jettySize=auto;html=1;entryX=0.5;entryY=0;entryDx=0;entryDy=0;" edge="1" parent="4-Plv-bzWUVsnKR8KWIE-13" source="4-Plv-bzWUVsnKR8KWIE-40" target="4-Plv-bzWUVsnKR8KWIE-37">
          <mxGeometry relative="1" as="geometry" />
        </mxCell>
        <mxCell id="4-Plv-bzWUVsnKR8KWIE-52" value="Ya" style="edgeLabel;html=1;align=center;verticalAlign=middle;resizable=0;points=[];" vertex="1" connectable="0" parent="4-Plv-bzWUVsnKR8KWIE-51">
          <mxGeometry x="-0.8086" y="1" relative="1" as="geometry">
            <mxPoint x="2" y="-1" as="offset" />
          </mxGeometry>
        </mxCell>
        <mxCell id="4-Plv-bzWUVsnKR8KWIE-53" value="" style="edgeStyle=orthogonalEdgeStyle;rounded=0;orthogonalLoop=1;jettySize=auto;html=1;entryX=1;entryY=0.5;entryDx=0;entryDy=0;" edge="1" parent="4-Plv-bzWUVsnKR8KWIE-13" target="4-Plv-bzWUVsnKR8KWIE-36">
          <mxGeometry relative="1" as="geometry">
            <mxPoint x="135" y="680" as="sourcePoint" />
            <mxPoint x="-68.96000000000004" y="875.52" as="targetPoint" />
            <Array as="points">
              <mxPoint x="135" y="870" />
            </Array>
          </mxGeometry>
        </mxCell>
        <mxCell id="4-Plv-bzWUVsnKR8KWIE-54" value="Tidak" style="edgeLabel;html=1;align=center;verticalAlign=middle;resizable=0;points=[];" vertex="1" connectable="0" parent="4-Plv-bzWUVsnKR8KWIE-53">
          <mxGeometry x="-0.1961" y="2" relative="1" as="geometry">
            <mxPoint x="-2" y="-71" as="offset" />
          </mxGeometry>
        </mxCell>
        <mxCell id="4-Plv-bzWUVsnKR8KWIE-55" value="" style="edgeStyle=orthogonalEdgeStyle;rounded=0;orthogonalLoop=1;jettySize=auto;html=1;exitX=1;exitY=0.5;exitDx=0;exitDy=0;" edge="1" parent="4-Plv-bzWUVsnKR8KWIE-13" source="4-Plv-bzWUVsnKR8KWIE-38" target="4-Plv-bzWUVsnKR8KWIE-41">
          <mxGeometry relative="1" as="geometry">
            <mxPoint x="-70" y="745.04" as="sourcePoint" />
          </mxGeometry>
        </mxCell>
        <mxCell id="4-Plv-bzWUVsnKR8KWIE-56" value="" style="edgeStyle=orthogonalEdgeStyle;rounded=0;orthogonalLoop=1;jettySize=auto;html=1;exitX=0;exitY=0.5;exitDx=0;exitDy=0;entryX=0.5;entryY=0;entryDx=0;entryDy=0;" edge="1" parent="4-Plv-bzWUVsnKR8KWIE-13" source="4-Plv-bzWUVsnKR8KWIE-42" target="4-Plv-bzWUVsnKR8KWIE-36">
          <mxGeometry relative="1" as="geometry">
            <mxPoint x="30" y="822.54" as="sourcePoint" />
            <mxPoint x="-70" y="822.54" as="targetPoint" />
          </mxGeometry>
        </mxCell>
        <mxCell id="4-Plv-bzWUVsnKR8KWIE-57" value="Tidak" style="edgeStyle=orthogonalEdgeStyle;rounded=0;orthogonalLoop=1;jettySize=auto;html=1;endArrow=classic;endFill=1;strokeColor=default;endSize=6;startSize=6;jumpSize=6;entryX=1;entryY=0.5;entryDx=0;entryDy=0;exitX=0.507;exitY=-0.029;exitDx=0;exitDy=0;exitPerimeter=0;" edge="1" parent="4-Plv-bzWUVsnKR8KWIE-13" source="4-Plv-bzWUVsnKR8KWIE-41" target="4-Plv-bzWUVsnKR8KWIE-37">
          <mxGeometry x="-0.873" relative="1" as="geometry">
            <mxPoint x="-70" y="665.04" as="targetPoint" />
            <mxPoint x="70" y="685.54" as="sourcePoint" />
            <Array as="points">
              <mxPoint x="71" y="680" />
            </Array>
            <mxPoint as="offset" />
          </mxGeometry>
        </mxCell>
        <mxCell id="4-Plv-bzWUVsnKR8KWIE-25" style="edgeStyle=orthogonalEdgeStyle;rounded=0;orthogonalLoop=1;jettySize=auto;html=1;entryX=0;entryY=0.5;entryDx=0;entryDy=0;exitX=1;exitY=0.5;exitDx=0;exitDy=0;" edge="1" target="4-Plv-bzWUVsnKR8KWIE-16" parent="1">
          <mxGeometry relative="1" as="geometry">
            <mxPoint x="2480" y="240" as="sourcePoint" />
            <mxPoint x="2640" y="230" as="targetPoint" />
          </mxGeometry>
        </mxCell>
        <mxCell id="4-Plv-bzWUVsnKR8KWIE-26" style="edgeStyle=orthogonalEdgeStyle;rounded=0;orthogonalLoop=1;jettySize=auto;html=1;entryX=0.5;entryY=0;entryDx=0;entryDy=0;exitX=0;exitY=0.5;exitDx=0;exitDy=0;" edge="1" parent="1">
          <mxGeometry relative="1" as="geometry">
            <mxPoint x="2655" y="320" as="sourcePoint" />
            <mxPoint x="2440" y="360" as="targetPoint" />
            <Array as="points">
              <mxPoint x="2640" y="320" />
              <mxPoint x="2440" y="320" />
            </Array>
          </mxGeometry>
        </mxCell>
        <mxCell id="4-Plv-bzWUVsnKR8KWIE-27" value="Gallery Management" style="text;html=1;align=center;verticalAlign=middle;resizable=0;points=[];autosize=1;strokeColor=none;fillColor=none;" vertex="1" parent="1">
          <mxGeometry x="2495" y="80" width="130" height="30" as="geometry" />
        </mxCell>
        <mxCell id="4-Plv-bzWUVsnKR8KWIE-28" style="edgeStyle=orthogonalEdgeStyle;rounded=0;orthogonalLoop=1;jettySize=auto;html=1;entryX=0;entryY=0.5;entryDx=0;entryDy=0;" edge="1" parent="1">
          <mxGeometry relative="1" as="geometry">
            <mxPoint x="2480" y="380.0000000000001" as="sourcePoint" />
            <mxPoint x="2655" y="380" as="targetPoint" />
          </mxGeometry>
        </mxCell>
        <mxCell id="4-Plv-bzWUVsnKR8KWIE-29" value="" style="endArrow=classic;html=1;rounded=0;entryX=1;entryY=0.5;entryDx=0;entryDy=0;exitX=1;exitY=0.5;exitDx=0;exitDy=0;" edge="1" source="4-Plv-bzWUVsnKR8KWIE-16" target="4-Plv-bzWUVsnKR8KWIE-2" parent="1">
          <mxGeometry relative="1" as="geometry">
            <mxPoint x="2740" y="240" as="sourcePoint" />
            <mxPoint x="2870" y="322" as="targetPoint" />
            <Array as="points">
              <mxPoint x="2770" y="240" />
              <mxPoint x="2770" y="175" />
            </Array>
          </mxGeometry>
        </mxCell>
        <mxCell id="4-Plv-bzWUVsnKR8KWIE-30" value="Tidak" style="edgeLabel;resizable=0;html=1;align=center;verticalAlign=middle;" connectable="0" vertex="1" parent="4-Plv-bzWUVsnKR8KWIE-29">
          <mxGeometry relative="1" as="geometry">
            <mxPoint x="90" y="65" as="offset" />
          </mxGeometry>
        </mxCell>
        <mxCell id="4-Plv-bzWUVsnKR8KWIE-31" style="edgeStyle=orthogonalEdgeStyle;rounded=0;orthogonalLoop=1;jettySize=auto;html=1;entryX=0.5;entryY=0;entryDx=0;entryDy=0;exitX=0;exitY=0.5;exitDx=0;exitDy=0;exitPerimeter=0;" edge="1" source="4-Plv-bzWUVsnKR8KWIE-15" target="4-Plv-bzWUVsnKR8KWIE-8" parent="1">
          <mxGeometry relative="1" as="geometry">
            <mxPoint x="2655" y="502.5000000000001" as="sourcePoint" />
            <mxPoint x="2480" y="502.5" as="targetPoint" />
          </mxGeometry>
        </mxCell>
        <mxCell id="4-Plv-bzWUVsnKR8KWIE-32" value="Ya" style="edgeLabel;html=1;align=center;verticalAlign=middle;resizable=0;points=[];" vertex="1" connectable="0" parent="4-Plv-bzWUVsnKR8KWIE-31">
          <mxGeometry x="-0.9086" y="-1" relative="1" as="geometry">
            <mxPoint x="-7" y="1" as="offset" />
          </mxGeometry>
        </mxCell>
        <mxCell id="4-Plv-bzWUVsnKR8KWIE-33" value="" style="edgeStyle=orthogonalEdgeStyle;rounded=0;orthogonalLoop=1;jettySize=auto;html=1;" edge="1" target="4-Plv-bzWUVsnKR8KWIE-17" parent="1">
          <mxGeometry relative="1" as="geometry">
            <mxPoint x="2480" y="562.5" as="sourcePoint" />
          </mxGeometry>
        </mxCell>
        <mxCell id="4-Plv-bzWUVsnKR8KWIE-34" value="Tidak" style="edgeStyle=orthogonalEdgeStyle;rounded=0;orthogonalLoop=1;jettySize=auto;html=1;endArrow=classic;endFill=1;strokeColor=default;endSize=6;startSize=6;jumpSize=6;entryX=1;entryY=0.5;entryDx=0;entryDy=0;" edge="1" source="4-Plv-bzWUVsnKR8KWIE-17" target="4-Plv-bzWUVsnKR8KWIE-8" parent="1">
          <mxGeometry x="-0.873" relative="1" as="geometry">
            <mxPoint x="2480" y="502.5" as="targetPoint" />
            <Array as="points">
              <mxPoint x="2620" y="503" />
              <mxPoint x="2480" y="503" />
            </Array>
            <mxPoint as="offset" />
          </mxGeometry>
        </mxCell>
        <mxCell id="4-Plv-bzWUVsnKR8KWIE-35" value="" style="edgeStyle=orthogonalEdgeStyle;rounded=0;orthogonalLoop=1;jettySize=auto;html=1;exitX=0;exitY=0.5;exitDx=0;exitDy=0;entryX=0.5;entryY=0;entryDx=0;entryDy=0;" edge="1" source="4-Plv-bzWUVsnKR8KWIE-24" target="4-Plv-bzWUVsnKR8KWIE-10" parent="1">
          <mxGeometry relative="1" as="geometry">
            <mxPoint x="2580" y="660" as="sourcePoint" />
            <mxPoint x="2480" y="660" as="targetPoint" />
          </mxGeometry>
        </mxCell>
        <mxCell id="4-Plv-bzWUVsnKR8KWIE-46" value="" style="group" vertex="1" connectable="0" parent="1">
          <mxGeometry x="2425" y="720" width="30" height="30" as="geometry" />
        </mxCell>
        <mxCell id="4-Plv-bzWUVsnKR8KWIE-47" value="" style="ellipse;whiteSpace=wrap;html=1;aspect=fixed;" vertex="1" parent="4-Plv-bzWUVsnKR8KWIE-46">
          <mxGeometry width="30" height="30" as="geometry" />
        </mxCell>
        <mxCell id="4-Plv-bzWUVsnKR8KWIE-48" value="" style="endArrow=none;html=1;rounded=0;exitX=0;exitY=1;exitDx=0;exitDy=0;entryX=1;entryY=0;entryDx=0;entryDy=0;" edge="1" parent="4-Plv-bzWUVsnKR8KWIE-46" source="4-Plv-bzWUVsnKR8KWIE-47" target="4-Plv-bzWUVsnKR8KWIE-47">
          <mxGeometry width="50" height="50" relative="1" as="geometry">
            <mxPoint x="20" y="60" as="sourcePoint" />
            <mxPoint x="70" y="10" as="targetPoint" />
          </mxGeometry>
        </mxCell>
        <mxCell id="4-Plv-bzWUVsnKR8KWIE-49" value="" style="endArrow=none;html=1;rounded=0;exitX=0;exitY=0;exitDx=0;exitDy=0;entryX=1;entryY=1;entryDx=0;entryDy=0;" edge="1" parent="4-Plv-bzWUVsnKR8KWIE-46" source="4-Plv-bzWUVsnKR8KWIE-47" target="4-Plv-bzWUVsnKR8KWIE-47">
          <mxGeometry width="50" height="50" relative="1" as="geometry">
            <mxPoint x="22" y="78" as="sourcePoint" />
            <mxPoint x="78" y="22" as="targetPoint" />
          </mxGeometry>
        </mxCell>
        <mxCell id="4-Plv-bzWUVsnKR8KWIE-59" value="" style="edgeStyle=orthogonalEdgeStyle;rounded=0;orthogonalLoop=1;jettySize=auto;html=1;" edge="1" parent="1" source="4-Plv-bzWUVsnKR8KWIE-36" target="4-Plv-bzWUVsnKR8KWIE-45">
          <mxGeometry relative="1" as="geometry" />
        </mxCell>
        <mxCell id="4-Plv-bzWUVsnKR8KWIE-60" value="Admin" style="swimlane;whiteSpace=wrap" vertex="1" parent="1">
          <mxGeometry x="2880" y="120" width="240" height="480" as="geometry" />
        </mxCell>
        <mxCell id="4-Plv-bzWUVsnKR8KWIE-61" value="" style="ellipse;shape=startState;fillColor=#000000;strokeColor=#000000;" vertex="1" parent="4-Plv-bzWUVsnKR8KWIE-60">
          <mxGeometry x="105" y="40" width="30" height="30" as="geometry" />
        </mxCell>
        <mxCell id="4-Plv-bzWUVsnKR8KWIE-62" value="" style="edgeStyle=elbowEdgeStyle;elbow=horizontal;verticalAlign=bottom;endArrow=open;endSize=8;strokeColor=#000000;endFill=1;rounded=0;entryX=0.5;entryY=0;entryDx=0;entryDy=0;entryPerimeter=0;" edge="1" parent="4-Plv-bzWUVsnKR8KWIE-60">
          <mxGeometry x="100" y="40" as="geometry">
            <mxPoint x="115" y="100" as="targetPoint" />
            <mxPoint x="114.71428571428578" y="100" as="sourcePoint" />
          </mxGeometry>
        </mxCell>
        <mxCell id="4-Plv-bzWUVsnKR8KWIE-63" value="" style="edgeStyle=elbowEdgeStyle;elbow=horizontal;verticalAlign=bottom;endArrow=open;endSize=8;strokeColor=#000000;endFill=1;rounded=0;entryX=0.5;entryY=0;entryDx=0;entryDy=0;entryPerimeter=0;" edge="1" parent="4-Plv-bzWUVsnKR8KWIE-60" source="4-Plv-bzWUVsnKR8KWIE-61">
          <mxGeometry x="100" y="40" as="geometry">
            <mxPoint x="120" y="100" as="targetPoint" />
            <mxPoint x="155" y="190" as="sourcePoint" />
          </mxGeometry>
        </mxCell>
        <mxCell id="4-Plv-bzWUVsnKR8KWIE-64" value="Login" style="rounded=1;whiteSpace=wrap;html=1;arcSize=40;fontColor=#000000;fillColor=#FFFFFF;strokeColor=#000000;" vertex="1" parent="4-Plv-bzWUVsnKR8KWIE-60">
          <mxGeometry x="80" y="100" width="80" height="40" as="geometry" />
        </mxCell>
        <mxCell id="4-Plv-bzWUVsnKR8KWIE-65" value="Pilih Menu Contact" style="rounded=1;whiteSpace=wrap;html=1;arcSize=40;fontColor=#000000;fillColor=#FFFFFF;strokeColor=#000000;" vertex="1" parent="4-Plv-bzWUVsnKR8KWIE-60">
          <mxGeometry x="80" y="240" width="80" height="40" as="geometry" />
        </mxCell>
        <mxCell id="4-Plv-bzWUVsnKR8KWIE-69" value="Lihat Data Contact" style="rounded=1;whiteSpace=wrap;html=1;arcSize=40;fontColor=#000000;fillColor=#FFFFFF;strokeColor=#000000;" vertex="1" parent="4-Plv-bzWUVsnKR8KWIE-60">
          <mxGeometry x="80" y="370" width="80" height="40" as="geometry" />
        </mxCell>
        <mxCell id="4-Plv-bzWUVsnKR8KWIE-70" value="" style="ellipse;shape=endState;fillColor=#000000;strokeColor=#000000;" vertex="1" parent="4-Plv-bzWUVsnKR8KWIE-60">
          <mxGeometry x="105" y="430" width="30" height="30" as="geometry" />
        </mxCell>
        <mxCell id="4-Plv-bzWUVsnKR8KWIE-71" value="" style="edgeStyle=orthogonalEdgeStyle;rounded=0;orthogonalLoop=1;jettySize=auto;html=1;" edge="1" parent="4-Plv-bzWUVsnKR8KWIE-60" source="4-Plv-bzWUVsnKR8KWIE-69" target="4-Plv-bzWUVsnKR8KWIE-70">
          <mxGeometry relative="1" as="geometry" />
        </mxCell>
        <mxCell id="4-Plv-bzWUVsnKR8KWIE-72" value="Sistem" style="swimlane;whiteSpace=wrap;startSize=23;" vertex="1" parent="1">
          <mxGeometry x="3120" y="120" width="240" height="480" as="geometry" />
        </mxCell>
        <mxCell id="4-Plv-bzWUVsnKR8KWIE-73" value="Ya" style="edgeStyle=orthogonalEdgeStyle;rounded=0;orthogonalLoop=1;jettySize=auto;html=1;entryX=0.5;entryY=0;entryDx=0;entryDy=0;exitX=0.5;exitY=1;exitDx=0;exitDy=0;" edge="1" parent="4-Plv-bzWUVsnKR8KWIE-72" source="4-Plv-bzWUVsnKR8KWIE-75">
          <mxGeometry x="-0.3333" relative="1" as="geometry">
            <mxPoint x="135" y="180" as="targetPoint" />
            <mxPoint as="offset" />
            <mxPoint x="129.9999999999999" y="155" as="sourcePoint" />
          </mxGeometry>
        </mxCell>
        <mxCell id="4-Plv-bzWUVsnKR8KWIE-74" value="Detail Contact" style="strokeWidth=2;html=1;shape=mxgraph.flowchart.decision;whiteSpace=wrap;" vertex="1" parent="4-Plv-bzWUVsnKR8KWIE-72">
          <mxGeometry x="95" y="302.5" width="80" height="80" as="geometry" />
        </mxCell>
        <mxCell id="4-Plv-bzWUVsnKR8KWIE-75" value="Verifikasi" style="rhombus;whiteSpace=wrap;html=1;" vertex="1" parent="4-Plv-bzWUVsnKR8KWIE-72">
          <mxGeometry x="95" y="80" width="80" height="80" as="geometry" />
        </mxCell>
        <mxCell id="4-Plv-bzWUVsnKR8KWIE-77" value="Tampil Dashboard" style="rounded=1;whiteSpace=wrap;html=1;arcSize=40;fontColor=#000000;fillColor=#FFFFFF;strokeColor=#000000;" vertex="1" parent="4-Plv-bzWUVsnKR8KWIE-72">
          <mxGeometry x="95" y="180" width="80" height="40" as="geometry" />
        </mxCell>
        <mxCell id="4-Plv-bzWUVsnKR8KWIE-78" style="edgeStyle=orthogonalEdgeStyle;rounded=0;orthogonalLoop=1;jettySize=auto;html=1;entryX=0.5;entryY=0;entryDx=0;entryDy=0;entryPerimeter=0;" edge="1" parent="4-Plv-bzWUVsnKR8KWIE-72" source="4-Plv-bzWUVsnKR8KWIE-79" target="4-Plv-bzWUVsnKR8KWIE-74">
          <mxGeometry relative="1" as="geometry" />
        </mxCell>
        <mxCell id="4-Plv-bzWUVsnKR8KWIE-79" value="Tampil Data Contact" style="rounded=1;whiteSpace=wrap;html=1;arcSize=40;fontColor=#000000;fillColor=#FFFFFF;strokeColor=#000000;" vertex="1" parent="4-Plv-bzWUVsnKR8KWIE-72">
          <mxGeometry x="95" y="240" width="80" height="40" as="geometry" />
        </mxCell>
        <mxCell id="4-Plv-bzWUVsnKR8KWIE-80" value="" style="edgeStyle=orthogonalEdgeStyle;rounded=0;orthogonalLoop=1;jettySize=auto;html=1;entryX=1;entryY=0.5;entryDx=0;entryDy=0;" edge="1" parent="4-Plv-bzWUVsnKR8KWIE-72" target="4-Plv-bzWUVsnKR8KWIE-69">
          <mxGeometry relative="1" as="geometry">
            <mxPoint x="135" y="382.4999999999998" as="sourcePoint" />
            <mxPoint x="-80" y="542.5" as="targetPoint" />
            <Array as="points">
              <mxPoint x="135" y="390" />
            </Array>
          </mxGeometry>
        </mxCell>
        <mxCell id="4-Plv-bzWUVsnKR8KWIE-81" value="Tidak" style="edgeLabel;html=1;align=center;verticalAlign=middle;resizable=0;points=[];" vertex="1" connectable="0" parent="4-Plv-bzWUVsnKR8KWIE-80">
          <mxGeometry x="-0.1961" y="2" relative="1" as="geometry">
            <mxPoint x="-2" y="-71" as="offset" />
          </mxGeometry>
        </mxCell>
        <mxCell id="4-Plv-bzWUVsnKR8KWIE-84" style="edgeStyle=orthogonalEdgeStyle;rounded=0;orthogonalLoop=1;jettySize=auto;html=1;entryX=0;entryY=0.5;entryDx=0;entryDy=0;exitX=1;exitY=0.5;exitDx=0;exitDy=0;" edge="1" target="4-Plv-bzWUVsnKR8KWIE-75" parent="1">
          <mxGeometry relative="1" as="geometry">
            <mxPoint x="3040" y="240" as="sourcePoint" />
            <mxPoint x="3200" y="230" as="targetPoint" />
          </mxGeometry>
        </mxCell>
        <mxCell id="4-Plv-bzWUVsnKR8KWIE-85" style="edgeStyle=orthogonalEdgeStyle;rounded=0;orthogonalLoop=1;jettySize=auto;html=1;entryX=0.5;entryY=0;entryDx=0;entryDy=0;exitX=0;exitY=0.5;exitDx=0;exitDy=0;" edge="1" parent="1">
          <mxGeometry relative="1" as="geometry">
            <mxPoint x="3215" y="320" as="sourcePoint" />
            <mxPoint x="3000" y="360" as="targetPoint" />
            <Array as="points">
              <mxPoint x="3200" y="320" />
              <mxPoint x="3000" y="320" />
            </Array>
          </mxGeometry>
        </mxCell>
        <mxCell id="4-Plv-bzWUVsnKR8KWIE-86" value="Contact &lt;br&gt;Management" style="text;html=1;align=center;verticalAlign=middle;resizable=0;points=[];autosize=1;strokeColor=none;fillColor=none;" vertex="1" parent="1">
          <mxGeometry x="3075" y="75" width="90" height="40" as="geometry" />
        </mxCell>
        <mxCell id="4-Plv-bzWUVsnKR8KWIE-87" style="edgeStyle=orthogonalEdgeStyle;rounded=0;orthogonalLoop=1;jettySize=auto;html=1;entryX=0;entryY=0.5;entryDx=0;entryDy=0;" edge="1" parent="1">
          <mxGeometry relative="1" as="geometry">
            <mxPoint x="3040" y="380.0000000000001" as="sourcePoint" />
            <mxPoint x="3215" y="380" as="targetPoint" />
          </mxGeometry>
        </mxCell>
        <mxCell id="4-Plv-bzWUVsnKR8KWIE-88" value="" style="endArrow=classic;html=1;rounded=0;entryX=1;entryY=0.5;entryDx=0;entryDy=0;exitX=1;exitY=0.5;exitDx=0;exitDy=0;" edge="1" source="4-Plv-bzWUVsnKR8KWIE-75" target="4-Plv-bzWUVsnKR8KWIE-61" parent="1">
          <mxGeometry relative="1" as="geometry">
            <mxPoint x="3300" y="240" as="sourcePoint" />
            <mxPoint x="3430" y="322" as="targetPoint" />
            <Array as="points">
              <mxPoint x="3330" y="240" />
              <mxPoint x="3330" y="175" />
            </Array>
          </mxGeometry>
        </mxCell>
        <mxCell id="4-Plv-bzWUVsnKR8KWIE-89" value="Tidak" style="edgeLabel;resizable=0;html=1;align=center;verticalAlign=middle;" connectable="0" vertex="1" parent="4-Plv-bzWUVsnKR8KWIE-88">
          <mxGeometry relative="1" as="geometry">
            <mxPoint x="90" y="65" as="offset" />
          </mxGeometry>
        </mxCell>
        <mxCell id="4-Plv-bzWUVsnKR8KWIE-90" style="edgeStyle=orthogonalEdgeStyle;rounded=0;orthogonalLoop=1;jettySize=auto;html=1;entryX=0.5;entryY=0;entryDx=0;entryDy=0;exitX=0;exitY=0.5;exitDx=0;exitDy=0;exitPerimeter=0;" edge="1" source="4-Plv-bzWUVsnKR8KWIE-74" target="4-Plv-bzWUVsnKR8KWIE-69" parent="1">
          <mxGeometry relative="1" as="geometry">
            <mxPoint x="3215" y="502.5000000000001" as="sourcePoint" />
            <mxPoint x="3000" y="482.5" as="targetPoint" />
          </mxGeometry>
        </mxCell>
        <mxCell id="4-Plv-bzWUVsnKR8KWIE-91" value="Ya" style="edgeLabel;html=1;align=center;verticalAlign=middle;resizable=0;points=[];" vertex="1" connectable="0" parent="4-Plv-bzWUVsnKR8KWIE-90">
          <mxGeometry x="-0.9086" y="-1" relative="1" as="geometry">
            <mxPoint x="-7" y="1" as="offset" />
          </mxGeometry>
        </mxCell>
      </root>
    </mxGraphModel>
  </diagram>
</mxfile>
